<?xml version="1.0" encoding="utf-8"?>
<!-- Generator: Adobe Illustrator 27.5.0, SVG Export Plug-In . SVG Version: 6.00 Build 0)  -->
<svg version="1.1" id="Camada_1" xmlns="http://www.w3.org/2000/svg" xmlns:xlink="http://www.w3.org/1999/xlink" x="0px" y="0px"
	 viewBox="0 0 616.32 288.51" style="enable-background:new 0 0 616.32 288.51;" xml:space="preserve">
<style type="text/css">
	.st0{fill:none;stroke:#000000;stroke-width:10;stroke-miterlimit:10;}
</style>
<g>
	<path d="M53.62,112.81c0-7.03,5.7-12.72,12.72-12.72h10.92c19,0,27.99,9.72,27.99,30.31v36.11c0,20.59-8.99,30.31-27.99,30.31
		H53.62V112.81z M75.95,183.03c10.58,0,14.36-5.51,14.36-20.59v-27.99c0-15.23-3.77-20.59-14.36-20.59h-7.4v69.17H75.95z"/>
	<path d="M162.71,113.86h-28.86v25.52h21.32v13.78h-21.32v29.87h28.86v13.78h-43.79v-84.34c0-6.84,5.54-12.38,12.38-12.38h31.41
		V113.86z"/>
	<path d="M188.25,191.22l-18.08-84.31c-0.75-3.51,1.92-6.82,5.51-6.82h8.54l14.5,73.52l12.76-73.52h10.17c2.62,0,4.6,2.39,4.1,4.97
		l-17.55,90.73c-0.11,0.59-0.63,1.02-1.23,1.02h-11.81C191.82,196.8,188.94,194.48,188.25,191.22z"/>
</g>
<g>
	<path d="M380.13,195.99h-9.63v-78.16c0-10.25,8.31-18.55,18.55-18.55h6.24c9.71,0,15.81,1.88,20.3,6.23
		c5.22,4.93,7.68,12.18,7.68,22.48c0,10.44-2.46,17.69-7.68,22.62c-4.5,4.35-10.59,6.23-20.3,6.23h-4.56c-2.93,0-5.3,2.37-5.3,5.3
		v28.55C385.43,193.62,383.06,195.99,380.13,195.99z M391.95,143.07c12.04,0,15.8-3.62,15.8-15.08c0-11.31-3.77-14.94-15.8-14.94
		h-1.22c-2.93,0-5.3,2.37-5.3,5.3v19.41c0,2.93,2.37,5.3,5.3,5.3H391.95z"/>
	<path d="M444.8,182.22h22.32c4.09,0,7.41,3.32,7.41,7.41v0.31c0,3.35-2.71,6.06-6.06,6.06h-25.65c-7.16,0-12.96-5.8-12.96-12.96
		v-70.7c0-7.21,5.85-13.06,13.06-13.06h1.88V182.22z"/>
	<path d="M495.14,174.97l-3.92,21.03h-14.65l16.54-86.21c1.17-6.1,6.5-10.5,12.71-10.5h9.75l19.58,96.72h-15.37l-4.06-21.03H495.14z
		 M505.29,117.84l-7.83,43.36h8.08c4.02,0,7.06-3.65,6.33-7.6L505.29,117.84z"/>
	<path d="M563.88,195.99h-14.94v-37.7l-18.24-49.5c-1.7-4.62,1.71-9.52,6.64-9.52h6.39l12.91,40.89l10.85-33.26
		c1.48-4.55,5.73-7.63,10.51-7.63h8.22l-22.33,59.02V195.99z"/>
</g>
<path class="st0" d="M312.66,192H240.4v-56.13c0-17.09,13.85-30.94,30.94-30.94h73.41v54.98C344.75,177.64,330.38,192,312.66,192z"
	/>
<g>
	<path d="M271.85,165.84l35.82-16.97l-36.17-17.25c-1.59-0.76-2.61-2.37-2.61-4.14v-4.39c0-2.14,2.25-3.55,4.17-2.6l44.73,21.9
		c1.69,0.83,2.75,2.54,2.75,4.42v4.36c0,1.73-0.99,3.32-2.55,4.08l-42.89,21c-2.87,1.41-6.22-0.68-6.22-3.88v-1.85
		C268.89,168.52,270.04,166.7,271.85,165.84z"/>
</g>
</svg>
