<?xml version="1.0" standalone="no"?>
<!DOCTYPE svg PUBLIC "-//W3C//DTD SVG 20010904//EN"
 "http://www.w3.org/TR/2001/REC-SVG-20010904/DTD/svg10.dtd">
<svg version="1.0" xmlns="http://www.w3.org/2000/svg"
 width="2568.000000pt" height="1203.000000pt" viewBox="0 0 2568.000000 1203.000000"
 preserveAspectRatio="xMidYMid meet">

<g transform="translate(0.000000,1203.000000) scale(0.100000,-0.100000)"
fill="#000000" stroke="none">
<path d="M16111 7890 c-321 -45 -568 -269 -653 -590 l-23 -85 0 -1675 0 -1675
214 -3 c247 -3 284 4 343 66 67 69 63 25 68 747 l5 660 28 48 c15 26 47 60 69
75 41 27 42 27 277 33 249 7 354 18 479 49 386 97 624 383 698 835 26 155 26
487 0 640 -31 189 -90 348 -176 475 -148 219 -352 338 -660 386 -113 17 -575
27 -669 14z m498 -596 c202 -40 314 -149 358 -347 23 -100 22 -403 0 -505 -45
-196 -155 -305 -353 -347 -99 -22 -338 -31 -394 -15 -58 16 -133 89 -149 145
-16 59 -15 884 1 939 16 54 91 129 144 144 51 15 293 6 393 -14z"/>
<path d="M18375 7890 c-73 -13 -163 -48 -222 -87 -114 -75 -208 -216 -233
-348 -8 -43 -10 -494 -8 -1615 l3 -1555 26 -66 c68 -175 220 -307 398 -345 99
-21 1186 -20 1257 1 107 32 174 127 174 247 0 128 -64 233 -175 288 l-50 25
-502 3 -503 3 -2 1727 -3 1727 -55 2 c-30 0 -77 -3 -105 -7z"/>
<path d="M21000 7889 c-199 -29 -373 -173 -435 -359 -13 -41 -705 -3627 -705
-3657 0 -10 61 -13 304 -13 l304 0 6 28 c12 54 156 836 156 844 0 4 193 8 428
8 l429 0 42 -217 c23 -120 61 -317 84 -438 l43 -220 322 -3 323 -2 -6 32 c-4
18 -187 926 -409 2018 l-401 1985 -215 1 c-118 1 -240 -2 -270 -7z m195 -1544
c103 -557 135 -753 132 -791 -7 -66 -35 -121 -86 -167 -69 -63 -90 -67 -312
-67 l-199 0 5 23 c3 12 73 398 155 857 83 459 153 851 157 870 3 19 8 31 9 25
2 -5 64 -343 139 -750z"/>
<path d="M22333 7890 c-64 -13 -116 -44 -165 -99 -54 -60 -84 -148 -74 -220 3
-25 179 -516 391 -1090 l385 -1044 0 -789 0 -788 313 2 312 3 5 800 5 800 458
1205 c251 662 457 1211 457 1218 0 12 -35 13 -212 10 -185 -5 -221 -8 -272
-27 -124 -44 -216 -126 -267 -236 -15 -33 -128 -369 -251 -747 -152 -468 -225
-682 -231 -670 -4 9 -124 387 -267 839 -142 453 -261 827 -265 833 -7 12 -260
12 -322 0z"/>
<path d="M11155 7860 c-381 -41 -747 -232 -987 -518 -187 -222 -300 -468 -343
-752 -13 -80 -15 -310 -15 -1433 l0 -1337 1708 3 c1698 3 1708 3 1804 24 305
68 555 197 767 399 257 244 422 564 470 908 7 52 11 508 11 1397 l0 1319
-1672 -1 c-920 -1 -1704 -5 -1743 -9z m2993 -1552 l-3 -1143 -28 -94 c-108
-370 -379 -655 -740 -776 -168 -56 -138 -55 -1704 -55 l-1443 0 0 1124 c0 976
2 1135 16 1206 50 266 200 501 425 670 137 102 325 178 494 199 39 5 726 9
1528 10 l1458 1 -3 -1142z"/>
<path d="M11242 6986 l-37 -34 -3 -128 c-4 -145 7 -190 61 -241 21 -21 277
-148 782 -389 413 -196 753 -360 757 -363 4 -4 -329 -165 -740 -360 -411 -194
-762 -364 -780 -378 -49 -37 -75 -95 -80 -184 -9 -154 57 -239 185 -239 43 0
144 47 968 450 976 478 972 475 994 557 14 49 14 247 0 297 -24 87 -14 81
-1036 581 -1055 515 -1002 494 -1071 431z"/>
<path d="M2632 7845 c-96 -27 -164 -67 -238 -140 -72 -71 -99 -113 -138 -215
l-21 -55 -3 -1802 -2 -1803 569 0 c328 0 603 4 648 10 516 67 806 335 902 835
38 196 43 346 38 1275 -5 947 -5 950 -57 1154 -106 409 -346 636 -770 728 -85
18 -137 21 -485 24 -321 3 -399 1 -443 -11z m719 -579 c138 -30 246 -109 308
-226 41 -76 76 -215 90 -354 14 -143 15 -1520 1 -1671 -28 -295 -115 -466
-280 -550 -87 -44 -163 -55 -397 -55 l-213 0 0 1435 0 1435 213 0 c143 0 233
-5 278 -14z"/>
<path d="M5342 7844 c-140 -37 -271 -142 -330 -264 -65 -132 -62 -28 -62
-1977 l0 -1773 915 0 915 0 0 290 0 290 -600 0 -600 0 0 620 0 620 445 0 445
0 0 285 0 285 -445 0 -445 0 0 530 0 530 600 0 600 0 0 290 0 290 -692 -1
c-567 0 -703 -3 -746 -15z"/>
<path d="M7230 7844 c-72 -31 -133 -112 -145 -191 -5 -28 92 -493 379 -1830
211 -986 392 -1807 400 -1825 27 -56 71 -102 127 -133 l54 -30 302 -3 302 -3
14 23 c15 23 747 3789 747 3841 0 61 -52 133 -113 156 -17 7 -120 11 -257 11
l-228 0 -5 -22 c-3 -13 -121 -691 -263 -1508 -141 -817 -259 -1488 -263 -1492
-3 -4 -79 365 -169 820 -90 455 -224 1136 -299 1515 l-136 687 -206 0 c-161
-1 -214 -4 -241 -16z"/>
</g>
</svg>
