<?xml version="1.0" standalone="no"?>
<!DOCTYPE svg PUBLIC "-//W3C//DTD SVG 20010904//EN"
 "http://www.w3.org/TR/2001/REC-SVG-20010904/DTD/svg10.dtd">
<svg version="1.0" xmlns="http://www.w3.org/2000/svg"
 width="1920.000000pt" height="1080.000000pt" viewBox="0 0 1920.000000 1080.000000"
 preserveAspectRatio="xMidYMid meet">

<g transform="translate(0.000000,1080.000000) scale(0.100000,-0.100000)"
fill="#000000" stroke="none">
<path d="M0 5395 l0 -5395 6553 1 c3603 0 6577 4 6607 9 31 4 59 4 65 -1 5 -5
404 -9 920 -9 793 1 915 3 950 16 22 9 54 19 70 23 30 7 30 7 30 80 l0 74 -78
3 c-84 3 -103 9 -74 26 14 7 18 19 15 46 l-3 37 93 3 92 3 0 70 c0 90 -18 129
-61 129 -40 0 -99 -56 -99 -94 0 -23 -4 -26 -32 -25 -31 0 -31 1 -10 10 19 7
23 15 20 41 -4 42 -39 50 -73 18 l-22 -21 -6 42 c-6 45 -40 89 -70 89 -10 0
-34 -7 -53 -16 -27 -13 -37 -14 -49 -4 -39 32 10 63 64 40 45 -18 73 -5 69 33
-3 31 -5 32 -49 32 -25 0 -53 6 -62 13 -27 23 -80 30 -145 20 -48 -7 -66 -6
-81 4 -19 13 -19 14 1 38 18 22 26 24 101 23 45 0 87 3 93 8 13 11 66 12 117
3 27 -4 44 -1 63 11 24 15 27 15 43 1 22 -20 44 -13 65 19 14 22 14 24 -7 38
-13 8 -29 33 -35 55 -13 43 -16 69 -6 59 4 -3 15 -2 24 3 15 8 17 6 13 -9 -5
-20 5 -30 52 -47 17 -6 38 -15 48 -19 14 -6 17 -1 17 33 0 27 5 42 16 46 10 4
14 16 12 38 -4 39 -24 46 -70 24 -39 -20 -67 -20 -74 -1 -5 11 -17 15 -42 13
-19 -2 -37 2 -39 8 -6 17 117 74 174 81 62 7 77 20 64 56 -12 30 -36 40 -76
29 -31 -8 -50 -7 -97 4 -21 5 -35 0 -58 -20 -18 -14 -37 -26 -45 -26 -13 0
-25 42 -25 89 0 15 -6 33 -12 40 -11 10 -10 15 5 25 9 7 17 23 17 35 0 14 6
21 20 21 22 0 40 28 40 63 l0 24 -142 -2 c-191 -2 -188 -2 -188 -24 0 -15 -11
-19 -67 -24 -38 -4 -123 -7 -190 -7 -103 0 -123 2 -123 15 0 8 3 14 8 14 29
-5 42 3 42 26 0 13 11 35 25 49 22 22 26 23 34 8 4 -9 11 -29 15 -43 8 -34 34
-41 78 -20 27 12 34 20 29 34 -4 10 -5 33 -3 51 3 28 7 32 27 28 17 -3 25 -12
27 -31 5 -46 109 -81 138 -46 8 9 21 13 36 9 30 -8 54 11 54 40 0 49 -62 65
-82 21 -12 -26 -58 -36 -58 -13 0 6 -7 20 -17 30 -21 23 2 25 28 2 21 -18 39
-11 39 16 0 43 -10 50 -73 50 -79 0 -129 30 -120 71 4 21 0 31 -20 43 -13 9
-32 14 -41 10 -22 -9 -38 -41 -31 -63 4 -12 0 -21 -11 -25 -24 -9 -42 10 -37
38 4 18 -2 29 -21 41 -34 22 -65 11 -72 -25 -8 -36 -44 -49 -44 -16 0 26 -29
56 -53 56 -20 0 -57 -34 -57 -52 0 -24 17 -40 51 -49 26 -7 19 -8 -30 -4 -35
3 -69 1 -75 -4 -7 -6 -70 -12 -141 -15 -256 -11 -340 -18 -355 -31 -21 -18
-324 -36 -384 -22 -19 4 -39 1 -57 -10 -25 -15 -29 -15 -53 0 -31 21 -70 22
-86 2 -14 -16 -46 -20 -54 -6 -8 12 35 29 109 42 39 6 69 17 72 25 3 9 20 14
47 14 34 0 45 5 68 32 24 29 27 30 28 12 0 -29 19 -44 57 -44 45 0 72 39 56
81 -11 28 -10 29 18 29 26 0 28 -2 19 -19 -15 -29 -12 -56 8 -74 53 -48 125
11 92 73 -9 17 -6 20 27 25 58 10 63 13 64 37 1 21 2 21 6 3 8 -31 19 -38 51
-30 26 5 31 12 34 38 3 31 5 32 41 29 21 -2 45 2 53 8 16 14 19 66 4 75 -6 4
0 15 15 27 22 17 44 21 138 24 62 2 204 8 316 14 198 10 205 9 226 -10 28 -27
79 -26 124 2 30 19 54 23 144 27 l107 3 0 44 c0 41 -3 46 -35 61 -28 13 -39
14 -60 5 -14 -7 -34 -12 -45 -12 -10 0 -25 -6 -32 -13 -15 -15 -42 -27 -78
-34 -19 -3 -30 3 -47 23 -22 28 -22 28 -43 9 -17 -16 -25 -17 -59 -7 -47 15
-91 15 -91 2 0 -13 -47 -13 -55 0 -4 6 -10 8 -15 5 -5 -3 -11 -1 -14 3 -3 5 8
19 24 31 27 19 28 24 18 47 -11 23 -16 25 -52 19 -22 -3 -43 -8 -45 -11 -3 -3
4 -23 16 -45 23 -42 23 -44 -23 -53 -22 -5 -35 -2 -44 9 -7 8 -18 15 -26 15
-22 0 -45 -31 -39 -51 5 -14 1 -19 -12 -20 -10 0 -28 -2 -40 -3 -19 -2 -21 1
-17 24 7 31 -15 53 -48 48 -19 -2 -23 -9 -23 -38 -1 -33 -3 -35 -38 -38 -36
-3 -37 -2 -35 28 2 23 -3 36 -18 46 -19 13 -24 12 -47 -6 l-26 -21 -15 52 c-9
29 -15 54 -13 55 7 7 65 7 104 0 38 -7 45 -5 67 19 15 16 27 22 31 15 9 -14
26 -12 49 5 23 18 15 60 -14 68 -16 4 -20 13 -20 46 0 47 -17 60 -53 43 -12
-6 -38 -13 -57 -16 -19 -4 -44 -16 -57 -28 l-22 -21 -12 27 c-12 26 -14 27
-83 21 -39 -4 -105 -10 -146 -15 -48 -6 -79 -5 -87 2 -15 12 -49 2 -75 -24
-19 -19 -30 -20 -137 -16 -105 5 -119 4 -145 -15 -24 -17 -27 -25 -23 -53 4
-22 1 -37 -9 -45 -12 -10 -14 -5 -14 31 0 26 -7 51 -17 62 -15 17 -15 18 14
18 30 0 64 28 76 63 6 16 15 17 86 11 73 -6 80 -5 90 14 16 30 14 50 -10 84
l-21 29 -102 -2 c-55 -1 -117 2 -137 6 -26 5 -38 3 -48 -9 -10 -12 -18 -13
-36 -4 -18 8 -28 8 -37 0 -8 -6 -59 -10 -126 -10 -91 1 -115 -2 -130 -15 -13
-12 -21 -14 -29 -6 -20 20 -82 22 -120 4 -23 -11 -39 -13 -45 -7 -6 6 6 17 34
30 32 16 65 22 128 23 47 1 90 4 96 6 18 6 28 111 14 129 -18 21 -68 18 -82
-6 -16 -26 -40 -26 -56 0 -8 14 -23 20 -47 20 -39 0 -58 -23 -53 -68 2 -21 -2
-28 -19 -30 -20 -3 -21 0 -16 32 7 45 -9 66 -51 66 -40 0 -56 -15 -56 -53 0
-38 -21 -31 -32 11 -5 17 -17 36 -28 42 -43 23 -98 -17 -87 -61 4 -13 0 -19
-13 -19 -13 0 -16 6 -13 25 3 13 11 29 19 36 24 20 -1 49 -43 49 -47 0 -93
-41 -93 -82 0 -15 -9 -37 -20 -48 -25 -25 -49 -27 -27 -2 10 10 17 35 17 56 0
29 -5 39 -24 47 -32 15 -72 4 -87 -22 -17 -32 -3 -68 33 -83 l31 -13 -37 -7
c-38 -7 -89 15 -67 29 6 3 11 24 11 45 0 43 -18 60 -63 60 -43 0 -74 -60 -49
-96 12 -19 50 -34 69 -28 14 4 15 4 3 -4 -37 -23 -68 -22 -95 2 -16 15 -22 27
-15 31 15 10 12 62 -6 79 -8 9 -32 16 -52 17 -35 0 -36 1 -12 10 14 6 48 8 77
4 50 -6 52 -5 97 36 49 46 54 64 35 132 -8 29 -15 37 -33 37 -12 0 -26 -3 -30
-7 -4 -4 -19 -9 -34 -10 -15 -2 -37 -8 -49 -14 -12 -7 -37 -9 -59 -4 l-37 7
29 23 c28 24 37 25 155 29 29 1 52 8 63 19 21 21 30 21 46 2 7 -9 29 -15 52
-15 31 0 41 4 45 20 7 26 25 26 41 0 9 -15 23 -20 52 -20 34 0 42 4 50 25 12
32 24 32 38 0 10 -21 19 -25 52 -25 37 0 42 3 56 35 15 36 34 39 34 6 0 -26
20 -41 57 -41 36 0 53 21 53 64 0 14 4 26 9 26 5 0 18 3 28 7 16 6 16 5 4 -10
-15 -19 -7 -67 12 -79 18 -12 62 -9 75 4 16 16 15 61 0 76 -17 17 7 32 45 30
27 -2 37 -21 17 -33 -14 -9 -13 -58 2 -73 15 -15 61 -15 76 0 17 17 15 77 -3
84 -48 19 29 64 110 64 33 0 83 7 110 16 34 11 99 17 200 20 83 2 166 6 186
10 22 3 39 2 43 -5 9 -14 53 -14 61 0 4 5 18 15 32 20 21 8 30 6 49 -12 20
-19 27 -21 49 -11 25 12 29 20 25 55 -1 10 4 25 11 33 13 16 13 125 0 134 -4
3 -10 12 -13 21 -11 28 -48 30 -72 5 -33 -35 -55 -39 -66 -12 -9 25 -49 41
-64 26 -11 -11 -79 -14 -89 -4 -9 9 19 47 53 72 27 20 32 21 52 8 31 -20 258
-11 258 10 0 9 11 14 30 14 36 0 56 30 40 60 -11 20 -16 22 -54 24 -13 1 -22
13 -30 41 -11 37 -15 40 -49 43 -31 3 -43 -2 -67 -28 -16 -17 -31 -44 -35 -60
-9 -41 -40 -40 -54 0 -8 26 -15 30 -38 28 -25 -3 -28 1 -35 41 -5 31 -17 53
-38 73 l-31 28 21 28 22 27 -53 3 c-35 2 -57 9 -65 20 -10 14 -31 17 -111 18
-54 1 -101 2 -106 3 -6 1 10 33 30 60 2 3 16 -8 32 -23 34 -32 78 -33 95 -1
17 32 29 35 41 12 23 -48 96 -47 103 2 5 29 19 26 49 -9 26 -31 60 -39 81 -18
17 17 15 53 -3 68 -14 11 -13 14 1 25 14 10 15 19 4 71 -16 80 -32 137 -43
151 -12 17 -5 26 47 51 33 17 50 20 63 14 19 -10 63 1 63 17 0 5 13 11 29 13
20 3 32 -1 40 -15 8 -12 21 -17 39 -15 23 2 27 8 27 33 0 24 -5 31 -23 33 -13
2 -30 -2 -38 -8 -11 -10 -14 -9 -14 9 0 32 -42 43 -141 39 -64 -2 -92 -7 -105
-20 -11 -9 -31 -20 -46 -23 -24 -6 -28 -4 -28 13 0 12 5 24 10 27 6 3 10 24
10 45 0 21 -4 42 -10 45 -11 7 -13 45 -4 69 4 9 18 16 33 16 28 0 51 30 51 65
0 8 4 15 10 15 16 0 23 49 10 65 -28 34 -88 7 -77 -35 4 -17 0 -20 -24 -20
-24 0 -29 4 -29 24 0 32 -35 57 -64 46 -15 -5 -21 -16 -21 -39 0 -28 -3 -31
-31 -31 -27 0 -31 3 -27 19 3 11 -4 28 -16 40 -16 16 -28 19 -58 14 -21 -3
-43 -10 -50 -15 -7 -6 -21 -3 -38 8 -20 13 -31 15 -50 6 -18 -8 -24 -8 -29 3
-6 16 19 39 33 31 5 -3 32 2 60 11 47 15 52 15 69 0 26 -24 32 -21 32 12 0 20
8 34 25 45 30 20 32 47 4 72 -19 17 -23 17 -47 3 -20 -11 -27 -23 -25 -42 2
-27 -9 -33 -41 -21 -9 3 -13 10 -10 15 9 16 -25 59 -46 59 -11 0 -28 -8 -39
-19 -18 -18 -19 -18 -56 0 -45 22 -70 24 -86 6 -13 -14 -65 -11 -75 4 -3 5
-18 9 -34 9 -20 0 -35 -9 -50 -30 -24 -34 -40 -39 -40 -12 0 27 -20 42 -56 42
-28 0 -34 -5 -44 -35 -13 -41 -40 -47 -40 -10 0 62 -94 67 -106 5 -5 -20 -12
-30 -25 -30 -12 0 -16 5 -13 14 8 20 -12 53 -37 61 -36 12 -69 -13 -69 -52 0
-26 -4 -33 -19 -33 -13 0 -18 7 -18 25 0 14 -9 35 -18 45 -39 43 -103 8 -92
-50 6 -25 3 -30 -13 -30 -16 0 -20 7 -20 33 0 58 -58 88 -93 49 -28 -30 -21
-70 14 -91 l30 -18 -88 -7 c-48 -4 -187 -11 -308 -15 -134 -4 -231 -11 -247
-18 -47 -21 -31 -5 25 24 42 22 66 28 127 29 102 2 97 0 117 36 15 28 18 30
21 13 6 -30 32 -55 59 -55 30 0 63 33 63 63 0 25 -28 57 -49 57 -9 0 -9 5 0
21 11 21 16 22 108 16 117 -7 211 9 222 39 7 17 8 17 8 -5 1 -22 4 -23 39 -15
20 4 51 8 69 8 38 1 50 11 35 29 -13 15 -11 33 6 64 7 12 12 30 12 40 0 11 15
26 35 37 29 16 62 20 182 23 82 1 165 6 186 9 23 4 48 1 62 -6 17 -9 28 -9 43
-1 26 14 77 14 103 1 15 -8 26 -7 48 6 28 16 30 16 52 -5 30 -27 82 -27 121 0
25 19 33 20 53 9 25 -13 75 -6 75 10 0 16 52 11 71 -6 25 -22 67 -11 75 20 4
16 11 22 23 19 13 -3 22 4 31 26 15 37 8 61 -18 61 -28 0 -45 -25 -36 -52 6
-20 5 -21 -10 -9 -9 7 -16 20 -16 27 0 7 -11 21 -25 30 -21 14 -31 14 -77 3
-29 -7 -64 -21 -78 -31 -14 -10 -39 -21 -57 -24 -26 -5 -36 -2 -58 22 -24 25
-26 26 -38 10 -12 -16 -19 -17 -76 -5 -46 9 -65 9 -73 1 -8 -8 -36 -9 -83 -5
-56 4 -77 2 -96 -10 -16 -11 -29 -13 -39 -7 -25 16 -48 11 -76 -15 -32 -30
-42 -31 -51 -7 -15 39 -63 43 -91 7 -11 -14 -24 -25 -30 -25 -5 0 -17 11 -26
25 -10 16 -26 25 -41 25 -18 0 -28 8 -35 26 -18 45 -13 56 21 50 20 -3 36 1
47 12 18 18 46 17 75 -3 23 -16 65 -7 78 17 11 20 5 68 -9 68 -4 0 -13 4 -20
9 -14 8 -9 26 26 98 19 39 5 83 -28 83 -19 0 -19 1 -3 43 9 23 23 50 31 60 24
27 5 70 -33 78 -53 10 -82 -35 -53 -81 10 -15 9 -22 -5 -38 -16 -18 -16 -20 2
-36 18 -16 18 -18 -1 -56 -24 -47 -33 -50 -41 -12 -3 16 -17 34 -31 41 -22 12
-29 12 -51 -3 -15 -10 -25 -26 -25 -41 0 -18 -5 -25 -20 -25 -16 0 -20 7 -20
30 0 34 -29 55 -66 46 -27 -7 -48 -40 -41 -66 3 -12 -2 -20 -14 -23 -16 -4
-19 1 -19 30 0 39 -21 62 -56 63 -43 0 -72 -68 -42 -98 16 -16 -3 -15 -24 2
-10 7 -18 24 -18 38 0 51 -69 78 -103 40 -10 -10 -17 -28 -17 -40 0 -23 32
-62 51 -62 5 0 7 -5 3 -11 -5 -8 -43 -10 -126 -7 -116 5 -119 5 -137 -18 -23
-29 -38 -30 -68 -5 -31 26 -29 31 11 31 50 0 85 16 98 45 12 27 28 34 28 12 0
-21 34 -47 62 -47 44 0 61 31 56 101 -3 41 -10 66 -20 73 -15 11 -15 13 3 24
23 15 26 64 5 85 -13 12 -12 16 8 25 31 14 64 -9 41 -28 -22 -18 -18 -53 8
-78 28 -26 45 -27 75 -6 23 16 29 53 12 84 -13 25 11 45 38 31 11 -6 22 -7 26
-4 12 13 147 18 191 8 23 -5 36 -1 54 14 30 26 36 26 61 1 11 -11 29 -20 40
-20 29 0 62 37 55 61 -4 13 -2 19 9 19 8 0 20 9 26 20 6 11 24 27 40 35 29 15
30 15 30 -10 0 -18 -5 -25 -19 -25 -25 0 -51 -26 -51 -50 0 -11 11 -27 25 -36
47 -31 101 17 75 66 -10 18 -8 20 26 20 31 0 35 -3 29 -17 -10 -23 -8 -54 2
-63 22 -20 53 -20 72 -1 27 27 27 57 0 72 -20 10 -18 13 32 45 30 19 68 41 86
49 17 8 34 19 38 25 9 15 51 12 65 -5 25 -30 80 -12 80 27 0 10 6 18 14 18 8
0 22 3 30 6 12 4 15 2 10 -9 -9 -24 14 -57 39 -57 31 0 47 18 47 52 0 24 4 28
30 28 26 0 30 -3 30 -29 0 -36 22 -55 54 -47 29 7 41 37 27 65 -10 18 -5 19
92 26 56 4 136 14 177 22 41 8 84 15 95 15 11 1 44 7 73 15 46 13 54 13 68 -1
21 -22 30 -20 77 14 32 22 52 30 82 28 39 -1 101 8 116 18 4 2 10 0 14 -6 3
-5 16 -10 28 -9 20 0 20 1 4 8 -17 6 -16 8 10 20 19 9 79 15 183 16 259 5 418
40 455 100 7 12 10 40 8 67 l-5 46 -58 7 c-33 4 -64 4 -69 0 -6 -3 -21 1 -33
9 -15 11 -45 16 -90 16 -38 0 -68 3 -68 8 0 19 42 73 67 86 22 11 32 11 44 3
11 -8 57 -11 137 -9 l122 3 0 58 c0 60 -15 121 -34 133 -6 4 -24 8 -39 8 -35
0 -82 -47 -92 -90 -5 -25 -12 -30 -35 -30 -25 0 -29 4 -27 27 2 23 -3 28 -28
33 -24 4 -30 10 -32 35 -3 40 -34 79 -66 83 -14 2 -40 -4 -58 -13 -28 -15 -33
-15 -47 -2 -27 27 -8 47 45 47 47 0 93 20 93 41 0 5 -22 9 -50 9 -27 0 -50 4
-50 9 0 14 -76 41 -113 41 -17 -1 -48 -7 -68 -14 -31 -11 -39 -10 -56 4 -20
16 -20 17 -3 41 17 21 26 24 102 25 46 1 92 4 103 8 11 4 30 12 42 16 15 6 25
5 33 -6 18 -20 73 -17 103 6 14 11 35 20 46 20 12 0 21 6 21 13 0 27 -42 202
-51 213 -18 22 79 80 153 89 63 8 78 14 78 33 -1 40 -15 45 -122 45 -92 1
-108 -2 -135 -21 -45 -32 -67 -29 -58 6 14 57 17 100 6 106 -15 9 -14 59 1 74
7 7 22 12 35 12 24 0 43 31 43 71 0 19 -6 20 -167 17 -165 -3 -168 -4 -171
-26 -2 -12 -11 -22 -20 -23 -9 0 -92 -2 -184 -4 -155 -4 -206 3 -142 19 23 6
26 11 20 37 -4 22 0 38 13 55 17 22 19 22 33 6 9 -9 18 -28 22 -42 12 -49 18
-52 75 -34 36 12 49 20 41 28 -5 5 -10 27 -10 48 0 36 2 38 30 38 20 0 30 -5
30 -15 0 -8 5 -15 10 -15 6 0 10 9 10 20 0 26 43 44 71 30 10 -6 19 -16 19
-22 0 -7 4 -7 14 1 11 9 15 7 21 -11 6 -20 8 -21 12 -5 3 10 -2 24 -10 30 -9
7 -17 23 -19 37 -3 23 -7 25 -67 28 -49 2 -71 9 -96 28 -35 26 -102 33 -123
12 -9 -9 -21 -7 -52 11 -23 13 -47 21 -54 18 -9 -4 -11 4 -8 24 4 24 1 29 -16
29 -20 0 -23 -14 -8 -38 6 -10 3 -13 -10 -10 -11 2 -18 11 -18 21 1 9 -2 14
-8 11 -5 -3 -8 -13 -6 -22 1 -10 -5 -28 -14 -41 -16 -22 -21 -24 -79 -17 -34
3 -67 2 -73 -3 -6 -5 -117 -14 -246 -20 -181 -8 -237 -14 -245 -25 -8 -10 -40
-15 -125 -16 -63 -1 -122 -2 -130 -1 -8 1 -35 -2 -60 -8 -35 -7 -48 -6 -61 5
-13 11 -26 12 -73 3 -42 -7 -61 -7 -71 1 -14 11 -76 5 -105 -11 -9 -5 -22 -2
-32 8 -15 14 -26 14 -74 4 -42 -8 -61 -8 -70 0 -10 8 -30 8 -71 1 -38 -6 -62
-6 -73 0 -11 7 -35 7 -74 1 -31 -6 -59 -6 -62 -2 -3 5 6 9 20 9 22 0 26 4 26
30 0 34 15 40 25 9 9 -26 49 -22 53 6 7 41 12 49 24 37 7 -7 18 -12 26 -12 8
0 25 -11 38 -25 19 -21 32 -25 78 -25 67 0 86 7 86 31 0 17 3 18 21 8 22 -11
87 -8 124 7 19 7 19 7 3 -13 -26 -29 -23 -33 27 -33 41 0 45 2 45 24 0 23 2
24 29 13 23 -8 36 -8 58 3 15 7 54 14 85 16 31 1 65 7 74 12 13 7 25 6 41 -5
18 -12 29 -13 53 -5 16 6 30 9 30 6 0 -3 9 0 21 6 15 8 24 8 34 0 16 -13 80
-11 108 3 12 5 23 4 33 -3 15 -13 100 -5 120 11 7 6 16 4 24 -6 17 -20 99 -11
118 13 11 15 14 14 28 -7 13 -18 22 -21 43 -15 14 4 34 6 43 6 10 0 23 9 29
20 11 21 12 21 26 -5 15 -30 20 -31 58 -17 16 6 23 14 19 22 -5 7 -3 8 6 3 9
-6 10 -2 5 16 -7 23 -6 23 11 7 15 -15 15 -19 3 -35 -13 -16 -12 -17 4 -4 19
15 23 41 6 41 -5 0 -8 4 -5 9 4 5 -2 8 -11 6 -28 -4 -35 5 -18 22 9 8 34 17
55 18 47 4 60 11 60 33 0 10 7 27 15 39 16 23 11 53 -9 53 -7 0 -27 -16 -44
-36 -34 -38 -58 -41 -55 -6 1 11 -5 26 -15 34 -16 12 -16 11 -3 -7 14 -19 14
-19 -5 -2 -16 15 -17 19 -4 28 11 8 9 9 -10 3 -56 -15 -70 -24 -76 -51 -4 -15
-18 -38 -31 -50 -12 -12 -23 -34 -23 -48 0 -22 -4 -25 -33 -25 -18 0 -39 -6
-46 -12 -10 -11 -14 -9 -22 5 -9 15 -18 17 -57 11 -26 -3 -53 -11 -60 -17 -9
-7 -16 -5 -25 7 -11 15 -21 16 -72 8 -33 -6 -64 -8 -69 -5 -12 8 15 23 42 23
18 0 22 5 22 35 0 30 4 36 28 41 38 9 49 20 55 54 9 44 45 61 134 66 508 26
544 27 566 6 37 -33 59 -34 113 -6 42 23 64 27 162 31 l112 5 0 44 c0 39 -3
44 -34 59 -29 14 -40 15 -78 4 -23 -7 -52 -18 -63 -25 -11 -7 -40 -18 -63 -24
-38 -10 -47 -9 -63 6 -10 9 -19 24 -19 32 0 10 -5 8 -17 -7 -17 -20 -21 -21
-76 -10 -40 8 -61 9 -69 1 -16 -16 -170 -2 -186 17 -12 14 -13 14 -9 -5 3 -17
0 -20 -14 -17 -11 3 -16 12 -14 24 2 11 0 17 -6 14 -5 -4 -7 -11 -4 -16 4 -5
0 -9 -7 -9 -7 -1 -3 -6 10 -13 19 -11 20 -15 10 -29 -17 -21 -113 -31 -139
-15 -15 9 -23 9 -39 -1 -21 -13 -82 -17 -93 -5 -4 3 2 16 13 28 28 30 17 65
-21 65 -22 0 -30 -6 -35 -24 -3 -14 -3 -30 1 -35 7 -13 -5 -14 -23 -2 -12 7
-42 90 -42 114 0 6 28 8 74 4 81 -6 89 -2 115 58 11 26 14 27 22 12 21 -37 77
-8 64 33 -4 13 -15 20 -31 20 -21 0 -24 5 -24 35 0 40 -19 54 -53 37 -12 -6
-38 -13 -58 -17 -21 -3 -48 -14 -62 -25 -26 -20 -26 -20 -32 0 -6 18 -15 20
-93 20 -48 0 -114 -4 -146 -10 -41 -7 -63 -6 -73 1 -9 8 -21 8 -43 1 -30 -11
-30 -11 -30 26 0 35 -2 37 -32 37 -31 0 -33 1 -30 36 2 21 -1 40 -7 43 -5 4
-57 7 -115 9 -99 2 -104 3 -89 19 23 25 52 32 71 16 13 -10 47 -12 135 -10
l117 3 0 34 c0 20 6 35 15 39 23 8 20 67 -4 73 -10 2 -24 16 -30 29 -15 33
-69 33 -109 -1 -17 -14 -37 -25 -46 -25 -17 0 -32 -42 -21 -59 3 -6 -2 -11
-13 -11 -15 0 -18 6 -14 30 3 24 1 30 -15 30 -30 0 -50 22 -56 63 -5 33 -3 39
17 47 28 10 41 58 21 79 -9 10 -35 13 -86 12 -60 -1 -75 1 -90 18 -24 26 -85
35 -154 22 -44 -8 -61 -8 -75 2 -18 12 -18 14 0 37 16 22 20 22 49 11 26 -11
34 -11 55 2 21 14 31 15 75 3 43 -11 54 -11 71 1 11 8 20 21 20 30 0 12 8 9
34 -11 52 -39 106 -31 106 16 0 10 7 18 15 18 28 0 11 163 -24 228 -10 20 -8
24 21 42 58 35 166 60 200 46 9 -4 27 -6 40 -4 18 2 24 10 26 36 3 27 -1 35
-17 39 -15 4 -21 13 -21 33 0 33 -21 53 -52 48 -18 -2 -24 -10 -26 -35 -3 -30
-6 -33 -37 -33 -28 0 -32 3 -28 20 7 28 -14 50 -47 50 -28 0 -40 -15 -40 -50
0 -10 -5 -22 -10 -25 -14 -9 -52 4 -45 15 9 15 -6 60 -21 60 -16 0 -34 31 -34
60 0 16 11 26 40 37 32 13 41 22 46 49 3 19 5 37 3 40 -2 4 -67 6 -144 4 -77
-1 -166 -2 -198 -1 -52 1 -58 -1 -66 -22 -8 -20 -29 -37 -47 -37 -2 0 -4 9 -4
19 0 11 -4 22 -9 25 -4 3 -11 24 -15 47 -5 32 -3 46 10 60 21 24 52 24 76 2
17 -15 23 -15 56 -3 40 14 52 26 52 52 0 32 -29 48 -88 48 -43 1 -67 7 -97 25
-44 28 -75 31 -105 13 -16 -10 -24 -10 -40 0 -11 6 -48 12 -83 12 -51 0 -68
-4 -82 -20 -20 -22 -61 -26 -99 -8 -21 9 -29 8 -44 -5 -15 -14 -43 -17 -163
-17 -79 -1 -163 -5 -187 -9 -23 -5 -45 -5 -48 0 -10 18 -68 9 -92 -13 l-24
-23 -15 23 c-26 38 -99 26 -116 -20 -3 -9 -12 -3 -26 15 -36 44 -111 34 -111
-15 0 -10 -4 -18 -10 -18 -5 0 -10 6 -10 14 0 8 -12 24 -26 35 -40 32 -104 12
-104 -33 -1 -20 -2 -19 -15 4 -7 14 -9 27 -4 28 5 2 9 10 9 18 0 8 10 14 25
14 33 0 73 21 103 53 23 25 24 25 43 6 10 -10 29 -19 42 -19 28 0 67 26 67 46
0 21 14 17 25 -8 15 -34 57 -45 89 -24 14 9 26 25 26 36 0 10 4 22 10 25 5 3
10 -2 10 -13 0 -27 32 -52 67 -52 40 0 51 15 59 84 6 53 9 57 36 63 16 3 32
12 35 19 3 8 13 14 23 14 22 0 42 24 44 52 1 30 26 36 26 5 0 -13 8 -31 18
-40 41 -38 110 -5 100 48 -4 20 -1 25 14 25 14 0 17 -5 13 -23 -7 -27 26 -67
55 -67 24 0 16 -27 -16 -52 -12 -10 -27 -31 -34 -48 -10 -25 -10 -34 4 -55 27
-41 106 -26 106 21 0 8 7 14 15 14 8 0 15 -6 15 -14 0 -22 29 -46 55 -46 34 0
58 28 53 61 -3 16 0 30 6 32 14 6 40 93 31 106 -3 6 -12 11 -19 11 -8 0 -16
15 -18 35 -4 33 -2 35 24 35 26 0 28 -2 18 -20 -24 -45 23 -90 73 -71 22 9 27
17 27 45 0 23 -6 39 -17 45 -14 8 -5 10 37 10 42 0 51 -2 38 -10 -22 -12 -24
-62 -4 -78 8 -7 30 -11 48 -9 28 2 34 7 36 31 2 15 9 27 18 27 8 0 17 0 21 0
4 0 8 -7 9 -16 6 -39 14 -45 51 -42 35 3 38 6 41 38 3 24 -2 38 -14 47 -30 22
-7 28 99 28 l102 0 3 48 c2 36 0 47 -11 47 -8 0 -24 16 -36 35 -26 45 -66 49
-83 8 -11 -25 -45 -62 -58 -63 -3 0 -5 16 -5 36 0 42 -20 60 -57 51 -50 -13
-37 -96 15 -98 22 0 22 0 -2 -10 -35 -14 -59 -2 -77 39 -27 63 -30 67 -60 70
-32 4 -54 -18 -54 -55 0 -16 -6 -23 -20 -23 -15 0 -20 7 -20 28 0 34 -16 52
-47 52 -13 0 -23 5 -23 11 0 8 -13 9 -42 4 -24 -3 -59 -9 -78 -12 -19 -3 -41
-10 -47 -15 -19 -15 -16 -55 6 -77 32 -32 3 -45 -94 -46 -46 0 -87 -4 -91 -8
-11 -11 -82 -9 -89 3 -4 6 -22 17 -41 25 -28 12 -33 18 -26 32 12 27 7 65 -12
79 -14 10 -12 12 17 18 19 4 42 4 51 0 15 -6 15 -8 -4 -21 -43 -30 -14 -103
42 -103 48 0 74 64 39 99 -12 12 -17 21 -12 21 5 0 14 15 21 33 6 17 16 40 21
50 9 16 -15 17 -424 17 l-433 0 -12 -45 c-8 -30 -17 -45 -28 -45 -13 0 -15 6
-9 28 3 15 14 35 22 44 15 17 -2 18 -336 18 l-351 -1 5 -24 c3 -14 7 -36 10
-50 3 -14 1 -25 -5 -25 -5 0 -10 5 -10 12 0 6 -10 22 -21 35 -18 18 -20 25 -9
38 11 13 6 15 -40 15 -42 0 -51 -3 -46 -15 4 -11 -2 -15 -20 -15 -13 0 -27 7
-30 15 -5 13 -566 15 -4965 15 l-4959 0 0 -5395z m9064 5346 c3 -5 -1 -11 -9
-15 -9 -3 -15 0 -15 9 0 16 16 20 24 6z m136 2 c0 -5 -5 -15 -10 -23 -7 -12
-12 -12 -22 -2 -10 10 -10 15 2 22 18 12 30 13 30 3z m-531 -63 c7 0 9 -4 6
-10 -9 -14 -28 -12 -50 3 -10 8 -15 19 -11 26 6 9 12 9 25 -3 10 -9 23 -16 30
-16z m2711 -89 c0 -19 -43 -66 -63 -67 -10 -1 -17 5 -17 17 0 11 5 19 12 19
19 0 48 32 48 54 0 17 2 18 10 6 5 -8 10 -21 10 -29z m586 14 c18 -14 18 -14
-8 -15 -18 0 -28 5 -28 15 0 19 11 19 36 0z m-1296 -136 c-13 -23 -13 -23 -21
-2 -4 11 -13 24 -19 28 -8 5 -8 11 1 21 11 13 15 13 32 -4 16 -17 17 -23 7
-43z m-3390 31 c0 -5 -11 -10 -25 -10 -14 0 -25 5 -25 10 0 6 11 10 25 10 14
0 25 -4 25 -10z m4552 -22 c-18 -18 -14 -53 8 -73 18 -17 32 -17 74 0 18 8 18
7 2 -18 -25 -37 -46 -42 -65 -15 -8 13 -25 33 -37 45 -12 12 -24 33 -26 47 -5
23 -2 26 25 26 24 0 28 -3 19 -12z m-1302 -8 c0 -5 -4 -10 -10 -10 -5 0 -10 5
-10 10 0 6 5 10 10 10 6 0 10 -4 10 -10z m850 -60 c-24 -16 -31 -11 -19 11 8
16 14 18 22 10 9 -9 8 -14 -3 -21z m-131 6 c8 -10 9 -16 1 -21 -13 -8 -30 3
-30 21 0 18 14 18 29 0z m-1524 -216 c3 -5 1 -10 -4 -10 -6 0 -11 5 -11 10 0
6 2 10 4 10 3 0 8 -4 11 -10z m800 -10 c17 -19 17 -20 -9 -31 -32 -15 -40 -8
-32 26 8 30 17 31 41 5z m145 -105 c0 -8 -4 -15 -10 -15 -5 0 -10 7 -10 15 0
8 5 15 10 15 6 0 10 -7 10 -15z m1388 -68 c6 -6 13 -24 17 -39 4 -15 13 -32
21 -39 21 -18 18 -49 -6 -49 -13 0 -20 7 -20 18 0 23 -19 42 -41 42 -25 0 -32
29 -14 56 17 27 28 30 43 11z m335 -263 c19 -7 11 -37 -14 -52 -17 -11 -19 -9
-19 16 0 38 7 46 33 36z m-569 -59 c6 -17 4 -18 -18 -9 -20 8 -21 24 -2 24 8
0 16 -7 20 -15z m361 -525 c-13 -13 -28 -17 -42 -14 -35 9 -27 22 15 27 20 2
39 4 42 5 2 1 -4 -7 -15 -18z m403 -92 c3 -14 -3 -18 -26 -18 -25 0 -29 3 -25
21 7 25 46 22 51 -3z m-1835 -49 c21 -12 21 -12 1 -19 -11 -5 -33 -6 -48 -3
l-29 6 24 13 c30 16 26 16 52 3z m-563 -54 c0 -12 -64 -36 -78 -30 -13 6 -7
11 23 20 47 15 55 17 55 10z m128 -2 c-10 -2 -26 -2 -35 0 -10 3 -2 5 17 5 19
0 27 -2 18 -5z m522 -473 c0 -5 -5 -10 -11 -10 -5 0 -7 5 -4 10 3 6 8 10 11
10 2 0 4 -4 4 -10z m2323 -122 c5 -37 -25 -82 -56 -84 -25 -2 -21 29 6 41 16
7 23 20 25 48 4 44 18 41 25 -5z m-702 -104 c10 -9 42 -19 71 -23 42 -6 48 -9
28 -14 -14 -4 -36 -6 -50 -6 -14 0 -77 -1 -140 -3 l-115 -3 44 22 c32 16 48
19 57 12 16 -13 50 -3 58 16 7 19 25 19 47 -1z m-1476 -42 c-34 -4 -42 3 -25
23 12 14 15 14 33 -2 19 -18 19 -18 -8 -21z m1179 -13 c-8 -14 -34 -10 -34 5
0 9 7 12 20 9 11 -3 17 -9 14 -14z m856 -35 c0 -8 -4 -12 -10 -9 -5 3 -10 10
-10 16 0 5 5 9 10 9 6 0 10 -7 10 -16z m150 6 c0 -14 -39 -32 -56 -26 -8 3
-14 12 -14 21 0 11 10 15 35 15 19 0 35 -4 35 -10z m-93 -142 c-3 -7 -5 -2 -5
12 0 14 2 19 5 13 2 -7 2 -19 0 -25z m511 -10 c6 -1 12 -5 12 -9 0 -10 -64
-18 -74 -9 -15 14 5 32 28 25 11 -3 27 -7 34 -7z m-5661 -28 c55 -24 73 -59
49 -94 -34 -53 -105 -45 -145 16 -13 21 -27 35 -31 33 -8 -5 -25 -72 -35 -142
l-7 -43 56 0 c51 0 56 -2 56 -22 0 -43 -14 -51 -69 -44 -28 4 -51 3 -51 -1 0
-4 -12 -87 -25 -183 -40 -271 -61 -336 -135 -410 -82 -82 -230 -86 -284 -8
-21 30 -20 50 4 76 39 41 93 23 143 -48 14 -20 19 -22 27 -11 17 29 40 141 65
327 13 104 28 206 31 227 6 36 5 37 -26 37 -28 0 -31 3 -28 28 2 22 8 28 35
30 26 3 34 9 39 30 12 50 68 144 101 169 70 54 157 66 230 33z m-2503 -8 c2
-4 -24 -140 -60 -302 -35 -162 -64 -301 -64 -307 0 -21 22 -15 50 12 17 16 33
23 43 19 26 -10 21 -20 -35 -78 -38 -39 -65 -57 -97 -66 -81 -21 -141 8 -141
68 0 13 25 140 55 284 30 143 55 262 55 264 0 1 -12 4 -27 6 -22 2 -27 8 -25
23 2 11 5 22 7 24 5 4 206 59 222 60 6 1 14 -3 17 -7z m1352 -6 c3 -8 -22
-140 -55 -293 -34 -153 -61 -289 -61 -301 0 -30 24 -28 49 4 22 28 51 27 51
-1 0 -9 -22 -38 -49 -65 -51 -51 -113 -77 -157 -66 -32 8 -64 45 -64 74 0 23
-1 23 -42 -12 -90 -78 -180 -84 -226 -16 -21 31 -23 43 -20 115 5 96 32 155
108 238 60 66 171 127 230 127 36 0 38 2 44 41 8 48 2 59 -30 59 -19 0 -24 5
-24 25 0 20 7 26 38 34 222 59 201 55 208 37z m-4209 -63 c-3 -10 -8 -40 -12
-68 -12 -95 -12 -95 -61 -95 l-44 0 0 60 0 60 -70 0 c-38 0 -70 -1 -70 -2 0
-2 -9 -49 -20 -106 -11 -56 -20 -107 -20 -112 0 -6 20 -10 45 -10 43 0 45 1
56 40 11 36 15 40 46 40 29 0 33 -3 29 -22 -9 -42 -36 -180 -36 -184 0 -2 -13
-4 -29 -4 -26 0 -30 4 -33 33 -3 31 -5 32 -48 32 l-45 0 -17 -85 c-9 -47 -19
-102 -22 -123 l-6 -38 87 3 88 3 19 53 19 52 49 0 c27 0 47 -3 45 -7 -3 -5
-12 -43 -22 -85 l-17 -78 -269 0 c-148 0 -269 3 -269 8 1 35 15 51 50 57 36 6
38 8 49 63 24 119 81 434 81 448 0 8 -9 14 -19 14 -37 0 -48 10 -43 40 l4 30
255 0 c237 0 254 -1 250 -17z m9248 9 c-20 -18 -75 -34 -92 -27 -15 6 -12 10
17 20 40 15 89 19 75 7z m-515 -43 c0 -3 -15 -5 -32 -5 -18 1 -46 -3 -61 -7
l-29 -8 17 29 17 29 44 -16 c24 -9 44 -18 44 -22z m347 35 c-3 -3 -12 -4 -19
-1 -8 3 -5 6 6 6 11 1 17 -2 13 -5z m-2961 -39 c-4 -14 -9 -45 -13 -70 l-6
-45 47 0 c46 0 46 0 40 -27 -10 -43 -14 -46 -59 -40 -40 6 -43 5 -50 -20 -17
-68 -55 -268 -55 -289 0 -32 23 -31 49 2 22 28 51 27 51 -1 0 -30 -92 -110
-142 -124 -85 -24 -138 5 -138 75 0 36 48 288 66 347 4 14 -1 17 -26 17 -28 0
-31 3 -28 28 3 23 8 28 43 32 38 5 42 9 75 72 l35 68 59 0 c57 0 58 0 52 -25z
m2139 5 c-21 -23 -50 -26 -58 -6 -6 15 10 23 52 25 23 1 24 0 6 -19z m-2435
-45 c0 -8 -4 -15 -10 -15 -5 0 -10 7 -10 15 0 8 5 15 10 15 6 0 10 -7 10 -15z
m1730 11 c0 -3 -4 -8 -10 -11 -5 -3 -10 -1 -10 4 0 6 5 11 10 11 6 0 10 -2 10
-4z m-7291 -83 c12 -10 34 -49 50 -86 l28 -68 44 67 c65 101 133 130 193 83
45 -35 32 -108 -22 -127 -33 -11 -88 7 -98 32 -4 12 -18 0 -50 -41 -24 -31
-44 -64 -43 -72 0 -9 15 -54 33 -101 37 -95 59 -110 94 -66 40 52 67 18 32
-40 -35 -55 -95 -94 -146 -94 -56 0 -96 34 -120 100 -10 28 -21 50 -24 50 -3
0 -25 -27 -48 -60 -24 -33 -56 -67 -73 -76 -56 -29 -125 2 -144 64 -5 17 1 29
24 52 38 38 74 39 111 2 l28 -28 42 55 43 54 -23 66 c-42 120 -45 124 -96 117
-62 -8 -69 13 -19 64 66 68 140 89 184 53z m723 7 c20 -6 48 -24 62 -41 76
-90 -25 -212 -216 -261 -33 -8 -48 -17 -48 -28 0 -18 35 -54 63 -63 30 -11
104 13 134 43 21 22 32 26 45 19 16 -9 17 -13 4 -37 -8 -15 -37 -49 -64 -74
-107 -100 -253 -101 -329 -2 -54 72 -41 220 28 321 71 103 206 155 321 123z
m372 -38 l-1 -42 34 26 c113 86 222 83 240 -7 l6 -30 26 25 c38 36 106 68 156
74 37 4 47 1 69 -21 35 -35 34 -91 -4 -237 -16 -63 -30 -125 -30 -137 0 -31
24 -29 49 3 17 22 25 25 42 18 21 -10 20 -11 -13 -54 -38 -51 -123 -100 -173
-100 -18 0 -44 9 -59 21 -35 27 -34 68 4 219 34 134 36 158 16 166 -15 6 -82
-21 -91 -37 -3 -4 -21 -83 -39 -174 -18 -91 -35 -168 -38 -170 -3 -3 -39 -8
-81 -11 -66 -6 -77 -5 -83 10 -3 9 10 96 30 193 23 111 33 180 27 186 -13 13
-52 2 -82 -22 -21 -16 -29 -43 -59 -189 l-34 -170 -51 -6 c-72 -8 -113 -7
-119 3 -4 5 12 95 34 201 22 105 40 193 40 194 0 2 -13 6 -30 9 -26 6 -29 9
-21 29 7 18 27 28 107 50 54 15 106 26 114 25 11 -2 15 -14 14 -45z m891 6 c0
-22 4 -34 10 -30 6 4 30 20 53 36 27 19 60 31 91 34 43 4 52 1 82 -26 l34 -30
0 -94 c0 -81 -4 -100 -28 -150 -61 -126 -184 -220 -287 -222 l-49 -1 -11 -55
c-6 -30 -13 -65 -15 -77 -4 -17 1 -23 26 -28 24 -5 29 -11 27 -28 -3 -21 -8
-22 -145 -25 l-143 -3 0 24 c0 19 7 26 28 30 27 6 27 6 81 269 30 145 56 272
58 284 4 17 -1 22 -26 27 -27 6 -30 9 -22 29 7 18 27 28 107 50 54 15 106 26
114 25 10 -2 15 -14 15 -39z m1028 17 c22 -10 51 -36 65 -58 24 -36 27 -50 27
-121 -1 -97 -22 -152 -86 -221 -128 -139 -335 -136 -410 5 -7 14 -13 56 -13
95 0 143 94 270 234 316 40 13 142 4 183 -16z m1329 15 c20 -6 48 -24 62 -41
76 -90 -25 -212 -216 -261 -33 -8 -48 -17 -48 -28 0 -18 35 -54 63 -63 30 -11
104 13 133 43 23 22 32 25 45 17 15 -10 16 -14 4 -37 -7 -14 -36 -47 -63 -72
-107 -100 -253 -101 -329 -2 -54 72 -41 220 28 321 71 103 206 155 321 123z
m1081 -15 c22 -10 51 -36 65 -58 24 -36 27 -50 27 -121 -1 -97 -22 -152 -86
-221 -128 -139 -335 -136 -410 5 -7 14 -13 56 -13 95 0 143 94 270 234 316 40
13 142 4 183 -16z m900 0 c22 -10 51 -36 65 -58 24 -36 27 -50 27 -121 -1 -97
-22 -152 -86 -221 -128 -139 -335 -136 -410 5 -7 14 -13 56 -13 95 0 143 94
270 234 316 40 13 142 4 183 -16z m2362 -25 c-17 -19 -35 -19 -35 1 0 6 4 8 8
5 4 -2 14 -1 22 5 23 14 25 11 5 -11z m-128 4 c-3 -3 -12 -4 -19 -1 -8 3 -5 6
6 6 11 1 17 -2 13 -5z m549 -166 c-1 -13 4 -23 11 -23 22 0 25 -13 8 -39 -19
-28 -35 -34 -35 -13 0 19 -30 44 -60 50 -21 4 -20 4 7 6 21 1 36 8 43 21 14
27 27 25 26 -2z m2284 -83 c15 -9 19 -14 10 -15 -8 0 -32 -3 -54 -7 -37 -6
-38 -5 -27 16 13 24 35 26 71 6z m-540 -34 c0 -17 -29 -33 -50 -26 -20 6 -25
16 -13 28 10 10 63 8 63 -2z m-130 -11 c0 -5 -7 -10 -15 -10 -8 0 -15 5 -15
10 0 6 7 10 15 10 8 0 15 -4 15 -10z m419 -526 c-11 -10 -24 -13 -42 -8 -41
10 -32 24 15 24 38 0 41 -1 27 -16z m-7007 -71 c43 -50 25 -97 -64 -176 -102
-89 -122 -78 -87 50 27 103 56 143 103 143 19 0 39 -7 48 -17z m5572 -63 c-18
-36 -28 -37 -48 -8 -23 33 -20 38 23 38 l39 0 -14 -30z m-134 16 c0 -3 -4 -8
-10 -11 -5 -3 -10 -1 -10 4 0 6 5 11 10 11 6 0 10 -2 10 -4z m-4874 -30 c3 -8
-22 -140 -55 -293 -34 -153 -61 -289 -61 -301 0 -30 24 -28 49 4 22 28 51 27
51 -1 0 -9 -22 -38 -49 -65 -51 -51 -113 -77 -157 -66 -32 8 -64 45 -64 74 0
23 -1 23 -42 -12 -90 -78 -180 -84 -226 -16 -21 31 -23 43 -20 115 5 96 32
155 108 238 60 66 171 127 230 127 36 0 38 2 44 41 8 48 2 59 -30 59 -19 0
-24 5 -24 25 0 20 7 26 38 34 222 59 201 55 208 37z m-4791 -238 c0 -22 4 -34
10 -30 6 4 30 20 53 36 27 19 60 31 91 34 43 4 52 1 82 -26 l34 -30 0 -94 c0
-81 -4 -100 -28 -150 -61 -126 -184 -220 -287 -222 l-49 -1 -11 -55 c-6 -30
-13 -65 -15 -77 -4 -17 1 -23 26 -28 24 -5 29 -11 27 -28 -3 -21 -8 -22 -145
-25 l-143 -3 0 24 c0 19 7 26 28 30 27 6 27 6 81 269 30 145 56 272 58 284 4
17 -1 22 -26 27 -27 6 -30 9 -22 29 7 18 27 28 107 50 54 15 106 26 114 25 10
-2 15 -14 15 -39z m720 26 c30 -14 36 -14 71 1 23 10 41 12 47 6 6 -6 -6 -76
-32 -188 -23 -98 -41 -188 -41 -200 0 -31 24 -29 48 4 20 27 52 27 52 0 0 -43
-123 -137 -179 -137 -40 0 -81 29 -88 60 -3 17 -7 30 -10 30 -2 0 -25 -16 -50
-35 -90 -69 -167 -70 -211 -5 -21 31 -23 43 -20 115 4 61 11 92 31 131 41 82
119 158 199 199 79 39 130 44 183 19z m420 6 c4 -6 1 -35 -5 -66 -13 -64 -8
-79 13 -37 19 36 84 101 109 109 64 20 128 -30 112 -88 -19 -65 -82 -84 -131
-39 l-22 21 -26 -32 c-49 -59 -86 -147 -107 -258 l-20 -107 -51 -7 c-73 -8
-115 -7 -121 3 -4 5 12 95 34 201 22 105 40 193 40 194 0 2 -13 6 -30 9 -26 6
-29 9 -21 29 6 18 27 28 97 49 101 30 120 33 129 19z m600 -6 c30 -14 36 -14
71 1 23 10 41 12 47 6 6 -6 -6 -76 -32 -188 -23 -98 -41 -188 -41 -200 0 -31
24 -29 48 4 20 27 52 27 52 0 0 -43 -123 -137 -179 -137 -40 0 -81 29 -88 60
-3 17 -7 30 -10 30 -2 0 -25 -16 -50 -35 -90 -69 -167 -70 -211 -5 -21 31 -23
43 -20 115 4 61 11 92 31 131 41 82 119 158 199 199 79 39 130 44 183 19z
m808 -9 c22 -10 51 -36 65 -58 24 -36 27 -50 27 -121 -1 -97 -22 -152 -86
-221 -128 -139 -335 -136 -410 5 -7 14 -13 56 -13 95 0 143 94 270 234 316 40
13 142 4 183 -16z m463 6 c54 -25 83 -80 60 -115 -34 -53 -103 -33 -132 38
-10 25 -22 46 -26 46 -13 0 -38 -45 -38 -70 0 -18 20 -44 74 -95 86 -81 96
-98 96 -159 0 -90 -91 -151 -225 -151 -84 1 -129 21 -152 69 -29 62 9 118 71
102 36 -9 55 -32 67 -82 13 -49 28 -55 59 -24 35 35 24 58 -70 150 -56 54 -69
72 -75 107 -9 58 1 95 38 138 55 63 170 84 253 46z m524 9 c34 -18 43 -52 60
-215 l16 -160 52 79 c29 43 52 84 52 91 0 7 -7 32 -15 55 -35 99 -5 160 79
160 35 0 48 -5 56 -19 19 -36 11 -109 -16 -166 -28 -57 -124 -188 -201 -273
-43 -48 -53 -53 -100 -59 -61 -7 -53 -25 -83 192 -28 208 -25 198 -60 192 -53
-11 -54 15 -2 66 64 63 117 81 162 57z m614 1 c4 -5 -12 -91 -34 -192 -22
-100 -40 -191 -40 -201 0 -26 25 -22 49 8 13 16 27 24 36 20 27 -10 16 -39
-34 -87 -73 -70 -163 -88 -213 -42 -25 22 -23 71 12 238 15 77 26 143 24 147
-3 5 -14 8 -24 8 -24 0 -29 10 -20 34 5 15 32 27 106 47 113 30 131 33 138 20z
m1038 -1 c20 -6 48 -24 62 -41 76 -90 -25 -212 -216 -261 -33 -8 -48 -17 -48
-28 0 -18 35 -54 63 -63 30 -11 104 13 133 43 23 22 32 25 45 17 15 -10 16
-14 4 -37 -7 -14 -36 -47 -63 -72 -107 -100 -253 -101 -329 -2 -54 72 -41 220
28 321 71 103 206 155 321 123z m521 -15 c22 -10 51 -36 65 -58 24 -36 27 -50
27 -121 -1 -97 -22 -152 -86 -221 -128 -139 -335 -136 -410 5 -7 14 -13 56
-13 95 0 143 94 270 234 316 40 13 142 4 183 -16z m463 6 c54 -25 83 -80 60
-115 -34 -53 -103 -33 -132 38 -10 25 -22 46 -26 46 -13 0 -38 -45 -38 -70 0
-18 20 -44 74 -95 86 -81 96 -98 96 -159 0 -90 -91 -151 -225 -151 -84 1 -129
21 -152 69 -29 62 9 118 71 102 36 -9 55 -32 67 -82 13 -49 28 -55 59 -24 35
35 24 58 -70 150 -56 54 -69 72 -75 107 -9 58 1 95 38 138 55 63 170 84 253
46z m3784 -305 c-23 -21 -67 -28 -73 -12 -4 11 4 16 31 19 20 2 41 4 47 5 5 1
3 -4 -5 -12z m-182 -19 c2 -12 -1 -15 -12 -11 -19 7 -22 38 -3 32 6 -3 13 -12
15 -21z m1229 -103 c-3 -3 -12 -4 -19 -1 -8 3 -5 6 6 6 11 1 17 -2 13 -5z
m-1900 -340 c-3 -3 -12 -4 -19 -1 -8 3 -5 6 6 6 11 1 17 -2 13 -5z m-205 -53
c-3 -30 1 -42 17 -53 19 -14 17 -15 -45 -25 -36 -5 -67 -6 -70 -1 -3 4 4 8 15
8 34 0 64 37 57 70 -4 22 -1 30 12 33 9 3 17 5 17 6 0 0 -1 -16 -3 -38z m-267
-82 c-4 -6 -39 -10 -89 -9 -92 2 -140 -6 -157 -26 -10 -13 -15 -12 -35 7 -19
18 -27 19 -56 11 -62 -20 -269 -44 -318 -37 -37 5 -51 3 -64 -10 -16 -16 -20
-16 -62 2 l-45 20 53 11 c91 19 168 23 228 10 53 -11 62 -10 111 12 41 17 72
23 133 23 46 0 89 5 104 13 22 11 29 11 42 -1 26 -23 73 -18 100 10 l23 24 19
-24 c11 -14 16 -30 13 -36z m129 36 c4 -11 -1 -15 -19 -15 -13 0 -27 -4 -30
-10 -3 -5 -16 -10 -28 -10 -18 0 -17 3 11 16 17 9 32 20 32 25 0 15 28 10 34
-6z m-4338 -16 c10 -17 -17 -29 -66 -28 l-45 1 40 19 c46 22 61 23 71 8z
m-186 -27 c-25 -4 -35 2 -26 17 5 7 13 7 27 -2 20 -12 20 -12 -1 -15z m816 9
c5 -5 25 -11 44 -14 24 -3 18 -4 -22 -5 -47 -2 -56 1 -52 13 7 17 16 19 30 6z
m1472 -22 c2 -12 -4 -16 -20 -15 -25 1 -40 15 -31 29 8 14 48 3 51 -14z
m-3251 5 c-3 -3 -12 -4 -19 -1 -8 3 -5 6 6 6 11 1 17 -2 13 -5z m5093 -154 c9
0 22 -11 28 -25 11 -24 10 -25 -21 -25 -18 0 -41 6 -51 13 -16 12 -17 17 -6
36 9 17 15 20 23 12 6 -6 18 -11 27 -11z m270 5 c0 -2 -10 -10 -22 -16 -21
-11 -22 -11 -9 4 13 16 31 23 31 12z m880 1 c0 -3 -4 -8 -10 -11 -5 -3 -10 -1
-10 4 0 6 5 11 10 11 6 0 10 -2 10 -4z m-1410 -41 c0 -19 -7 -24 -41 -30 -56
-10 -129 2 -129 21 0 10 14 14 53 14 30 0 62 6 72 14 25 18 45 10 45 -19z
m-2326 -149 c68 -28 66 -15 66 -481 0 -461 2 -448 -60 -480 -24 -12 -86 -15
-359 -15 l-329 0 -109 -116 -108 -115 -8 40 c-10 49 -42 63 -82 37 l-25 -16 0
72 c0 40 -4 78 -8 83 -4 6 -26 16 -48 23 -44 13 -91 53 -105 90 -5 13 -9 202
-9 421 0 387 1 399 21 425 11 14 35 30 52 35 18 5 267 10 555 10 426 1 529 -2
556 -13z m3606 -37 c0 -16 -4 -29 -10 -29 -5 0 -10 16 -10 36 0 21 4 33 10 29
6 -3 10 -19 10 -36z m-6395 -20 c-196 -17 -343 -61 -462 -140 -57 -37 -63 -44
-63 -75 0 -76 -69 -159 -147 -179 -47 -12 -48 -13 -75 -81 -35 -91 -52 -192
-45 -273 5 -54 4 -61 -5 -36 -6 17 -11 77 -12 135 -1 86 3 118 23 179 67 204
248 371 478 441 103 31 153 38 288 37 l120 0 -100 -8z m153 -6 c-10 -2 -26 -2
-35 0 -10 3 -2 5 17 5 19 0 27 -2 18 -5z m676 -38 c3 -8 1 -15 -4 -15 -15 0
-50 -76 -50 -109 0 -16 -4 -33 -10 -36 -16 -10 -12 112 5 145 17 32 49 40 59
15z m5510 0 c-4 -8 -7 -15 -9 -15 -2 0 -5 7 -9 15 -3 9 0 15 9 15 9 0 12 -6 9
-15z m-700 -70 c23 -17 62 -20 71 -5 8 13 56 13 75 -1 11 -8 6 -9 -21 -6 -20
3 -41 1 -47 -5 -6 -6 -36 -8 -81 -3 -60 6 -70 9 -60 21 15 18 39 17 63 -1z
m-4619 -55 c3 -5 -1 -10 -11 -10 -9 0 -43 -13 -76 -30 -32 -16 -66 -30 -76
-30 -18 0 -16 2 69 57 35 24 83 30 94 13z m5405 0 c0 -15 -39 -21 -114 -18
-44 2 -71 8 -74 16 -3 9 20 12 92 12 56 0 96 -4 96 -10z m-1115 -208 c-11 -11
-34 8 -28 24 6 15 7 15 20 -1 7 -10 11 -21 8 -23z m-562 -6 c6 -16 -2 -28 -14
-20 -12 7 -11 34 0 34 5 0 11 -6 14 -14z m7 -130 c0 -2 -7 -9 -15 -16 -12 -10
-15 -10 -15 4 0 9 7 16 15 16 8 0 15 -2 15 -4z m2310 -80 c-19 -52 54 -90 114
-59 20 11 31 12 39 4 19 -19 56 -12 73 13 10 16 21 23 32 19 25 -9 40 -32 35
-53 -4 -15 -18 -19 -91 -25 -185 -14 -282 -11 -282 9 0 8 10 16 23 18 18 3 22
8 19 37 -1 21 4 41 14 52 22 24 36 15 24 -15z m410 -264 c37 -10 33 -15 -10
-13 -14 1 -38 -7 -52 -18 -23 -18 -27 -19 -32 -5 -3 8 -1 25 5 36 11 21 12 21
89 0z m-563 -38 c6 -18 -22 -24 -92 -17 -65 6 -85 18 -42 25 46 8 130 3 134
-8z m-6217 -118 c0 -65 25 -206 46 -261 9 -22 27 -54 40 -72 l24 -31 -28 -6
c-27 -6 -160 -25 -174 -26 -5 0 -8 5 -8 12 0 30 -43 96 -73 113 -29 15 -54 17
-193 13 -173 -5 -206 -13 -238 -63 -10 -15 -20 -42 -23 -61 -5 -33 -7 -34 -49
-34 -39 0 -43 2 -49 30 -8 37 -39 76 -74 95 -31 15 -330 26 -367 12 -20 -7
-20 -4 -20 123 1 71 2 130 3 130 2 0 36 -11 77 -25 193 -65 475 -51 836 40 74
19 162 43 195 53 33 11 63 17 68 15 4 -2 7 -28 7 -57z m-2019 -136 c62 -17 74
-40 74 -139 -1 -164 -60 -258 -200 -316 -87 -36 -106 -53 -151 -133 -41 -73
-40 -73 -94 20 l-36 63 -120 5 c-122 5 -155 15 -174 50 -6 11 -10 98 -10 208
l0 189 26 26 c14 14 38 28 52 30 59 9 599 6 633 -3z m8869 -100 c0 -5 -5 -10
-11 -10 -5 0 -7 5 -4 10 3 6 8 10 11 10 2 0 4 -4 4 -10z m-7036 -91 l26 -20 0
-159 c0 -152 -1 -160 -24 -186 -26 -31 -80 -42 -221 -43 -84 -1 -114 10 -135
49 -15 28 -40 290 -30 315 20 53 46 59 256 63 89 2 105 -1 128 -19z m-634 -13
c45 -20 50 -47 34 -196 -7 -74 -14 -141 -14 -148 0 -7 -11 -24 -25 -37 -23
-24 -29 -25 -158 -25 -114 0 -138 3 -155 18 -27 24 -43 97 -49 233 -6 124 1
153 40 169 30 11 296 0 327 -14z m-442 -217 l-3 -71 -28 22 c-59 47 -87 157
-52 208 9 12 30 25 48 30 l32 8 3 -62 c2 -35 2 -95 0 -135z m1637 167 c44 -44
45 -133 2 -197 -23 -34 -81 -72 -127 -82 l-25 -6 3 142 c4 161 7 167 79 167
33 0 50 -6 68 -24z m6129 -27 c-10 -11 -20 -16 -22 -10 -2 6 -10 11 -17 11 -8
0 -17 5 -20 10 -4 6 10 10 36 10 42 0 42 0 23 -21z m-6436 -71 c-25 -35 -68
-98 -97 -140 -36 -53 -62 -80 -83 -87 -27 -10 -29 -9 -17 5 9 11 16 59 19 135
4 65 9 121 11 124 5 4 135 21 187 24 22 1 21 -2 -20 -61z m-701 14 c6 -4 16
-53 21 -108 6 -56 17 -115 26 -132 20 -38 73 -72 117 -73 25 -1 19 -4 -21 -9
-65 -9 -286 -12 -316 -4 -19 5 -19 7 12 38 37 37 50 78 59 196 4 47 12 88 18
92 15 10 69 10 84 0z m773 -197 c-13 -69 -63 -199 -88 -233 -16 -21 -18 -21
-41 -6 -30 22 -51 73 -51 127 0 40 10 58 93 175 l92 131 3 -67 c2 -37 -2 -94
-8 -127z m6678 154 c1 -25 -2 -28 -14 -18 -17 14 -18 36 -1 42 6 3 12 6 13 6
1 1 1 -13 2 -30z m-1741 -51 c-22 -14 -28 -8 -16 13 9 17 13 19 20 8 5 -8 3
-16 -4 -21z m-428 -32 c-2 -2 -20 -6 -39 -10 -25 -4 -31 -3 -20 4 14 9 69 15
59 6z m-119 -11 c0 -2 -19 -9 -42 -15 -24 -6 -51 -13 -60 -16 -33 -10 -19 12
15 23 34 11 87 16 87 8z m-4656 -247 c-72 -103 -230 -208 -369 -243 -121 -31
-343 -11 -423 37 -44 27 -132 134 -172 210 l-32 60 33 -4 c19 -3 70 -16 114
-29 73 -21 99 -23 310 -23 212 0 240 2 355 26 69 15 143 34 165 41 39 14 40
14 43 -10 2 -15 -8 -41 -24 -65z m4636 -168 c0 -13 -5 -18 -14 -14 -8 3 -12
12 -9 20 8 21 23 17 23 -6z m-6520 -109 c-5 -11 -10 -30 -10 -43 -1 -13 34
-153 77 -311 l77 -288 -12 -109 c-24 -210 -81 -340 -207 -465 -85 -85 -152
-130 -262 -174 -152 -62 -183 -66 -485 -66 -243 0 -279 2 -294 16 -16 17 -384
1352 -384 1396 0 12 9 32 20 43 20 20 33 20 755 20 724 0 736 0 725 -19z
m1896 -190 c-25 -47 -69 -72 -137 -78 -75 -7 -130 15 -161 65 -24 39 -15 52
35 52 35 0 162 42 225 74 l47 24 3 -54 c2 -33 -3 -64 -12 -83z m1194 74 c0
-35 -16 -48 -26 -20 -5 11 -10 12 -26 4 -16 -9 -24 -7 -37 6 -15 15 -15 17 3
31 11 8 35 14 53 14 31 0 33 -2 33 -35z m966 21 c9 -24 31 -26 57 -5 l25 19
20 -31 19 -31 -23 -23 -23 -23 -43 21 c-37 19 -60 22 -161 22 -122 0 -133 4
-107 45 7 12 12 12 28 -4 15 -12 29 -16 53 -11 19 3 52 7 73 10 22 2 44 9 50
15 14 14 26 13 32 -4z m2040 -13 c-10 -10 -19 5 -10 18 6 11 8 11 12 0 2 -7 1
-15 -2 -18z m-4920 1 c18 -14 18 -15 -6 -8 -31 8 -50 24 -29 24 8 0 24 -7 35
-16z m3477 -6 c18 -13 34 -26 37 -29 13 -14 40 -16 57 -4 32 25 53 19 53 -15
0 -29 -13 -40 -25 -20 -4 6 -68 10 -160 10 -128 0 -153 2 -149 14 3 8 13 12
26 8 11 -3 24 1 29 9 7 11 12 12 29 2 11 -7 25 -13 31 -13 18 0 41 30 35 45
-7 20 -1 19 37 -7z m303 -54 c-9 -8 -16 -19 -16 -24 0 -8 -59 -3 -69 6 -2 2 4
13 13 23 10 11 19 28 20 38 2 11 14 20 32 23 26 5 29 2 32 -22 2 -16 -4 -35
-12 -44z m-2408 26 l4 -33 -26 16 c-17 12 -49 17 -103 18 l-78 2 70 6 c39 4
79 12 90 19 29 17 40 10 43 -28z m728 9 l38 -30 -49 3 c-39 2 -51 7 -53 22 -3
14 10 34 24 36 1 0 19 -14 40 -31z m1863 -36 l26 -23 -47 0 c-37 0 -50 -5 -62
-22 l-16 -22 0 22 c0 12 12 41 26 64 24 37 27 40 36 22 6 -10 22 -29 37 -41z
m-1609 29 c8 -3 20 -6 25 -6 10 -1 21 -56 11 -56 -3 0 -15 9 -27 21 -17 17
-27 19 -65 13 l-45 -6 12 25 c10 22 17 25 43 21 17 -3 38 -8 46 -12z m-621 2
c17 -4 31 -10 31 -14 0 -8 -67 4 -77 14 -8 8 7 8 46 0z m1344 -35 c-6 -6 -20
-5 -39 3 l-28 13 34 5 c36 5 50 -4 33 -21z m162 11 c3 -5 -1 -10 -10 -10 -9 0
-13 5 -10 10 3 6 8 10 10 10 2 0 7 -4 10 -10z m-1426 -67 c-7 -10 -15 -20 -16
-22 -2 -2 -3 5 -3 17 0 14 6 22 16 22 14 0 15 -3 3 -17z m199 10 c-10 -2 -26
-2 -35 0 -10 3 -2 5 17 5 19 0 27 -2 18 -5z m230 -10 c-10 -2 -28 -2 -40 0
-13 2 -5 4 17 4 22 1 32 -1 23 -4z m-1816 -80 c36 -24 54 -28 142 -33 l101 -5
178 -104 c272 -159 264 -146 283 -459 13 -198 12 -227 -1 -256 -28 -59 -47
-64 -351 -86 -154 -11 -285 -20 -291 -20 -9 0 -13 16 -13 49 l0 48 163 7 c238
10 277 15 304 42 18 18 23 34 23 76 0 58 -17 211 -27 243 -6 18 -7 17 -14 -8
-4 -15 -13 -78 -19 -140 -7 -62 -13 -113 -13 -114 -1 -1 -115 -9 -254 -18
l-252 -16 -138 36 c-75 19 -147 35 -160 35 -13 0 -23 3 -23 8 0 4 7 68 15 142
8 74 12 136 10 138 -2 2 -25 -65 -52 -149 l-49 -154 -79 -38 c-44 -21 -93 -51
-109 -65 -28 -27 -77 -121 -90 -174 l-6 -28 -120 0 -119 0 -11 43 c-6 23 -15
55 -20 71 -6 16 -10 33 -10 37 0 5 37 9 83 11 l82 3 25 50 c14 28 81 168 149
313 128 271 164 327 239 374 34 21 357 165 375 167 4 1 26 -11 49 -26z m1644
-20 c-280 -3 -322 -5 -338 -20 -22 -19 -36 -10 -18 12 11 13 57 15 344 13
l331 -3 -319 -2z m2659 -44 c6 -19 0 -38 -9 -28 -10 12 -16 49 -7 49 5 0 13
-9 16 -21z m-4795 -34 c-7 -9 -15 -13 -19 -10 -3 3 1 10 9 15 21 14 24 12 10
-5z m2410 -60 l0 -55 -290 0 -290 0 0 50 0 50 288 3 c158 1 288 3 290 5 1 1 2
-23 2 -53z m960 45 c0 -5 -10 -10 -22 -10 -19 0 -20 2 -8 10 19 13 30 13 30 0z
m620 -45 c0 -2 -9 -9 -20 -15 -12 -6 -20 -7 -20 -1 0 5 8 12 18 14 9 3 18 5
20 6 1 0 2 -1 2 -4z m2044 -96 c-5 -9 -34 -13 -34 -5 0 2 -3 12 -6 21 -6 14
-3 14 19 4 15 -7 24 -16 21 -20z m-2849 1 c22 -24 13 -50 -17 -51 -13 0 -35
-3 -50 -5 -16 -3 -28 -3 -28 0 0 6 64 73 71 75 3 0 14 -8 24 -19z m-350 -11
c10 4 31 3 46 -2 21 -8 33 -7 54 7 26 17 28 17 54 -7 14 -13 35 -29 46 -35 16
-9 3 -11 -64 -12 -47 0 -99 -5 -117 -12 -22 -8 -46 -8 -75 -2 -38 8 -44 13
-47 37 -4 34 31 52 63 32 11 -8 28 -10 40 -6z m-536 -36 c-16 -83 -48 -191
-80 -268 l-32 -75 -158 0 c-158 0 -159 0 -159 23 0 12 -7 87 -15 167 -8 80
-15 157 -15 173 l0 27 234 0 233 0 -8 -47z m86 -150 c-17 -178 -20 -202 -29
-192 -2 3 25 318 33 388 1 2 4 2 7 -2 3 -3 -2 -90 -11 -194z m2999 162 c27
-14 48 -25 45 -26 -2 0 -12 -2 -22 -4 -9 -2 -30 3 -46 11 -29 15 -54 10 -93
-18 -13 -9 -20 -9 -32 1 -26 22 -9 39 33 34 26 -4 41 0 50 11 7 9 14 16 15 16
0 0 23 -11 50 -25z m-1758 -8 c10 -22 8 -24 -18 -24 -21 0 -27 4 -23 14 3 8 5
19 5 24 0 18 25 8 36 -14z m-266 3 c0 -5 -4 -10 -9 -10 -6 0 -13 5 -16 10 -3
6 1 10 9 10 9 0 16 -4 16 -10z m505 0 c15 12 35 6 35 -11 0 -5 -25 -9 -56 -9
-49 0 -55 2 -44 15 9 11 17 12 32 4 14 -7 23 -7 33 1z m2711 -22 c-21 -30 -38
-30 -59 -2 l-18 24 46 0 c45 0 46 0 31 -22z m146 -1 c-12 -13 -22 -31 -22 -40
0 -27 -17 -20 -25 10 -3 15 -14 33 -23 40 -15 10 -9 12 37 13 l54 0 -21 -23z
m132 15 c9 -15 -6 -52 -20 -52 -8 0 -14 4 -14 10 0 5 -10 18 -22 30 l-22 20
37 0 c19 0 38 -4 41 -8z m-431 -27 c-22 -30 -29 -31 -36 -6 -5 19 0 22 46 30
4 0 0 -10 -10 -24z m-151 -20 c-2 -19 -8 -35 -12 -35 -4 0 -10 16 -12 35 -3
27 0 35 12 35 12 0 15 -8 12 -35z m-292 -21 c0 -8 -4 -12 -10 -9 -5 3 -10 10
-10 16 0 5 5 9 10 9 6 0 10 -7 10 -16z m1166 -135 c-16 -13 -24 -14 -38 -5
-22 13 -23 41 -2 58 8 7 23 21 32 31 16 17 17 16 23 -25 5 -35 2 -45 -15 -59z
m273 40 c-24 -15 -29 -10 -17 16 10 23 13 24 21 9 6 -11 5 -19 -4 -25z m-539
-19 c0 -5 -4 -10 -10 -10 -5 0 -12 -11 -16 -25 -8 -31 -17 -32 -38 -1 -15 24
-14 25 12 34 36 14 52 14 52 2z m-904 -97 c-10 -10 -19 5 -10 18 6 11 8 11 12
0 2 -7 1 -15 -2 -18z m-532 -28 c27 -21 10 -38 -19 -19 -14 9 -22 20 -19 25 7
12 16 11 38 -6z m2704 -120 c-9 -29 -19 -41 -36 -43 -33 -5 -30 34 3 42 20 5
25 13 25 40 0 18 3 36 8 40 13 14 13 -39 0 -79z m-5792 -17 c-3 -29 -6 -70 -6
-90 l0 -38 -224 0 c-124 0 -227 3 -229 8 -3 4 -8 44 -12 90 l-7 82 242 0 243
0 -7 -52z m5116 -48 c20 -12 51 -20 78 -20 37 -1 42 -3 27 -11 -10 -6 -34 -9
-53 -7 -18 2 -35 0 -36 -4 -2 -5 -47 -6 -100 -2 l-97 7 24 19 c19 15 29 17 44
9 23 -13 47 -6 55 15 7 19 19 18 58 -6z m-3402 1 c0 -9 -41 -23 -48 -16 -2 2
-1 8 3 14 8 13 45 15 45 2z m-3765 -39 l140 -37 3 -94 3 -93 -63 4 c-35 2 -84
10 -110 18 -41 12 -52 12 -98 -3 -39 -13 -88 -17 -191 -17 -132 0 -139 1 -139
20 0 24 47 125 65 140 16 14 153 80 185 90 40 13 57 11 205 -28z m7715 -42 c0
-5 -2 -10 -4 -10 -3 0 -8 5 -11 10 -3 6 -1 10 4 10 6 0 11 -4 11 -10z m150 6
c0 -3 -7 -12 -16 -21 -14 -13 -19 -14 -25 -3 -14 22 -10 28 16 28 14 0 25 -2
25 -4z m-5535 -91 c0 -20 -8 -20 -495 -25 -404 -4 -499 -8 -516 -19 -56 -37
-76 -137 -37 -189 25 -35 79 -62 123 -62 24 0 39 -6 48 -20 12 -19 10 -20 -46
-20 -144 0 -238 123 -184 241 10 24 31 55 45 67 54 50 67 51 582 49 473 -2
480 -2 480 -22z m-50 -117 c4 -24 5 -61 3 -83 l-3 -40 -327 -3 -328 -2 0 38 0
39 83 6 c45 4 120 7 167 8 140 2 26 15 -203 23 -147 5 -202 4 -213 -5 -9 -7
-14 -30 -14 -60 l0 -49 -40 0 c-54 0 -90 34 -90 85 0 25 8 44 25 60 l24 25
455 0 455 0 6 -42z m4719 -43 c3 -9 -1 -18 -10 -22 -19 -7 -28 2 -21 22 8 19
23 19 31 0z m-5424 -65 l0 -49 -30 5 c-18 4 -36 1 -45 -6 -13 -11 -15 -6 -15
37 0 27 3 53 7 56 3 4 24 7 45 7 l38 0 0 -50z m-2446 -62 c3 -13 6 -26 6 -30
0 -5 -341 -8 -759 -8 -752 0 -759 0 -785 21 -14 11 -26 25 -26 30 0 5 307 9
779 9 l779 0 6 -22z m3206 -28 c0 -20 -7 -20 -365 -20 -363 0 -365 0 -353 20
12 19 24 20 365 20 346 0 353 0 353 -20z m-780 -5 c11 -13 8 -15 -20 -15 -28
0 -31 2 -20 15 7 8 16 15 20 15 4 0 13 -7 20 -15z m1034 -96 c29 -23 33 -54
10 -87 l-15 -22 -2771 0 c-2565 0 -2773 1 -2790 17 -24 21 -23 68 2 93 20 20
33 20 2779 20 l2758 0 27 -21z m66 -159 c0 -5 -7 -10 -16 -10 -8 0 -12 5 -9
10 3 6 10 10 16 10 5 0 9 -4 9 -10z m4055 -20 c4 -6 -5 -10 -19 -10 -14 0 -26
5 -26 10 0 6 9 10 19 10 11 0 23 -4 26 -10z m2202 -1 l28 -11 -32 -12 c-17 -6
-35 -14 -39 -18 -14 -15 -24 -8 -24 15 0 39 17 46 67 26z m49 -26 c-10 -10
-19 5 -10 18 6 11 8 11 12 0 2 -7 1 -15 -2 -18z m-661 -23 c-3 -5 -17 -10 -31
-10 -13 0 -24 5 -24 10 0 6 14 10 31 10 17 0 28 -4 24 -10z m15 -124 c0 -2 -7
-9 -15 -16 -13 -11 -14 -10 -9 4 5 14 24 23 24 12z m695 -226 c-3 -5 -11 -10
-16 -10 -6 0 -7 5 -4 10 3 6 11 10 16 10 6 0 7 -4 4 -10z m-335 -170 c-20 -13
-70 -13 -70 0 0 6 19 10 43 10 31 0 38 -3 27 -10z m-1420 -140 c0 -20 -5 -22
-62 -24 -38 -2 -35 6 10 26 49 21 52 21 52 -2z m1909 -224 c9 -11 9 -20 2 -35
-6 -11 -8 -27 -5 -35 5 -13 -1 -16 -30 -16 -34 0 -36 2 -36 34 0 23 7 38 23
49 28 20 32 20 46 3z"/>
<path d="M6451 7695 c-32 -28 -65 -103 -76 -177 -15 -98 21 -146 83 -114 26
13 32 25 42 73 7 32 20 96 31 143 14 64 15 86 6 92 -23 15 -56 8 -86 -17z"/>
<path d="M3443 7727 c-42 -23 -80 -90 -97 -169 -8 -37 7 -36 67 1 68 44 109
135 75 169 -15 15 -17 15 -45 -1z"/>
<path d="M4820 7662 c-17 -14 -28 -46 -50 -155 -27 -136 -27 -138 -8 -148 65
-35 137 67 154 216 11 90 -38 134 -96 87z"/>
<path d="M5675 7706 c-40 -42 -67 -132 -73 -242 -5 -91 6 -124 42 -124 55 0
105 111 114 252 6 103 -1 134 -30 141 -16 5 -30 -3 -53 -27z"/>
<path d="M7063 7727 c-42 -23 -80 -90 -97 -169 -8 -37 7 -36 67 1 68 44 109
135 75 169 -15 15 -17 15 -45 -1z"/>
<path d="M8085 7706 c-40 -42 -67 -132 -73 -242 -5 -91 6 -124 42 -124 55 0
105 111 114 252 6 103 -1 134 -30 141 -16 5 -30 -3 -53 -27z"/>
<path d="M8985 7706 c-40 -42 -67 -132 -73 -242 -5 -91 6 -124 42 -124 55 0
105 111 114 252 6 103 -1 134 -30 141 -16 5 -30 -3 -53 -27z"/>
<path d="M7201 6485 c-32 -28 -65 -103 -76 -177 -15 -98 21 -146 83 -114 26
13 32 25 42 73 7 32 20 96 31 143 14 64 15 86 6 92 -23 15 -56 8 -86 -17z"/>
<path d="M2740 6452 c-17 -14 -28 -46 -50 -155 -27 -136 -27 -138 -8 -148 65
-35 137 67 154 216 11 90 -38 134 -96 87z"/>
<path d="M3291 6485 c-49 -42 -92 -184 -76 -255 9 -42 42 -57 81 -37 27 14 31
24 60 159 23 103 29 145 20 150 -22 15 -55 8 -85 -17z"/>
<path d="M4311 6485 c-49 -42 -92 -184 -76 -255 9 -42 42 -57 81 -37 27 14 31
24 60 159 23 103 29 145 20 150 -22 15 -55 8 -85 -17z"/>
<path d="M5115 6496 c-40 -42 -67 -132 -73 -242 -5 -91 6 -124 42 -124 55 0
105 111 114 252 6 103 -1 134 -30 141 -16 5 -30 -3 -53 -27z"/>
<path d="M7813 6517 c-42 -23 -80 -90 -97 -169 -8 -37 7 -36 67 1 68 44 109
135 75 169 -15 15 -17 15 -45 -1z"/>
<path d="M8275 6496 c-40 -42 -67 -132 -73 -242 -5 -91 6 -124 42 -124 55 0
105 111 114 252 6 103 -1 134 -30 141 -16 5 -30 -3 -53 -27z"/>
<path d="M7457 5220 l-27 -21 0 -353 0 -353 26 -24 26 -24 475 0 475 0 24 28
24 28 0 343 c0 324 -1 345 -19 367 l-19 24 -479 3 c-474 3 -480 2 -506 -18z
m975 -43 c4 -7 8 -22 8 -34 l0 -23 -485 0 -485 0 0 35 0 35 188 3 c351 6 766
-3 774 -16z m-504 -169 c-4 -10 -51 -13 -193 -13 -142 0 -189 3 -192 13 -4 9
39 12 192 12 153 0 196 -3 193 -12z m-148 -93 c0 -16 -232 -13 -238 3 -3 10
22 12 117 10 72 -2 121 -7 121 -13z m455 5 c-4 -6 -82 -10 -201 -10 -128 0
-193 3 -189 10 4 6 82 10 201 10 128 0 193 -3 189 -10z m-235 -90 c0 -6 -83
-10 -230 -10 -147 0 -230 4 -230 10 0 6 83 10 230 10 147 0 230 -4 230 -10z
m220 0 c0 -6 -33 -10 -80 -10 -47 0 -80 4 -80 10 0 6 33 10 80 10 47 0 80 -4
80 -10z m-66 -79 c9 -14 -176 -23 -403 -19 -152 2 -205 6 -209 16 -3 9 62 12
302 12 171 0 307 -4 310 -9z m-384 -91 c0 -6 -43 -10 -110 -10 -67 0 -110 4
-110 10 0 6 43 10 110 10 67 0 110 -4 110 -10z m180 0 c-20 -13 -110 -13 -110
0 0 6 27 10 63 10 44 0 58 -3 47 -10z m104 -88 c6 -10 -489 -26 -504 -17 -33
21 11 25 244 25 140 0 257 -4 260 -8z"/>
<path d="M7540 5155 c0 -8 7 -15 15 -15 8 0 15 7 15 15 0 8 -7 15 -15 15 -8 0
-15 -7 -15 -15z"/>
<path d="M7595 5161 c-3 -5 -1 -12 5 -16 12 -7 30 2 30 16 0 12 -27 12 -35 0z"/>
<path d="M7650 5155 c0 -8 7 -15 15 -15 8 0 15 7 15 15 0 8 -7 15 -15 15 -8 0
-15 -7 -15 -15z"/>
<path d="M6029 4121 c-34 -11 -76 -39 -82 -55 -4 -11 12 -12 81 -8 66 3 96 1
126 -12 53 -22 60 -20 40 13 -30 50 -108 80 -165 62z"/>
<path d="M5353 4090 c-29 -17 -60 -57 -51 -65 2 -2 24 3 48 12 34 11 66 14
133 9 100 -7 109 3 41 41 -50 29 -126 31 -171 3z"/>
<path d="M6004 3866 c-87 -38 -106 -193 -32 -267 55 -55 133 -34 169 45 24 52
24 100 0 153 -30 64 -84 92 -137 69z m32 -81 c22 -34 5 -78 -29 -73 -17 2 -23
11 -25 36 -3 32 11 62 29 62 5 0 16 -11 25 -25z"/>
<path d="M5445 3872 c-50 -10 -95 -81 -95 -149 0 -48 31 -115 61 -137 37 -26
91 -21 121 12 38 41 48 65 48 122 0 52 -20 109 -45 130 -18 15 -66 27 -90 22z
m73 -74 c25 -25 11 -88 -19 -88 -35 0 -51 57 -23 84 19 19 26 20 42 4z"/>
<path d="M3720 2448 c-15 -17 -20 -35 -20 -79 0 -147 140 -263 186 -153 28 67
-11 188 -76 232 -41 28 -64 28 -90 0z"/>
<path d="M7584 2426 c-39 -39 -44 -48 -44 -90 0 -33 4 -46 14 -46 20 0 76 55
76 75 0 27 29 73 50 80 32 10 23 25 -16 25 -30 0 -45 -8 -80 -44z"/>
<path d="M7700 2422 c-32 -22 -39 -31 -47 -66 -3 -16 -24 -46 -45 -67 l-40
-38 25 -7 c67 -16 157 67 157 144 0 41 -19 54 -50 34z"/>
<path d="M11680 10780 c0 -18 52 -32 77 -21 38 17 26 31 -27 31 -27 0 -50 -5
-50 -10z"/>
<path d="M11830 10780 c0 -14 33 -28 55 -22 11 2 52 4 92 4 51 -1 75 3 83 14
11 12 -4 14 -109 14 -71 0 -121 -4 -121 -10z"/>
<path d="M12122 10778 c7 -19 63 -22 78 -4 11 14 7 16 -35 16 -33 0 -45 -4
-43 -12z"/>
<path d="M12270 10775 c7 -8 23 -15 35 -15 12 0 28 7 35 15 11 13 6 15 -35 15
-41 0 -46 -2 -35 -15z"/>
<path d="M12410 10780 c0 -19 51 -23 68 -6 15 15 13 16 -26 16 -23 0 -42 -4
-42 -10z"/>
<path d="M12564 10775 c25 -19 40 -19 56 0 11 13 6 15 -31 15 -41 -1 -43 -2
-25 -15z"/>
<path d="M12710 10775 c15 -19 21 -19 46 0 18 13 16 14 -20 15 -33 0 -37 -2
-26 -15z"/>
<path d="M12854 10775 c13 -10 24 -11 37 -4 28 14 23 19 -18 19 -35 -1 -37 -2
-19 -15z"/>
<path d="M12995 10780 c3 -5 15 -10 25 -10 10 0 22 5 25 10 4 6 -7 10 -25 10
-18 0 -29 -4 -25 -10z"/>
<path d="M13135 10780 c8 -13 35 -13 55 0 11 7 5 10 -23 10 -23 0 -36 -4 -32
-10z"/>
<path d="M13288 10778 c8 -8 17 -8 34 0 22 10 21 11 -11 11 -27 1 -32 -2 -23
-11z"/>
<path d="M13438 10778 c9 -9 15 -9 24 0 9 9 7 12 -12 12 -19 0 -21 -3 -12 -12z"/>
<path d="M13570 10785 c0 -7 30 -13 34 -7 3 4 -4 9 -15 9 -10 1 -19 0 -19 -2z"/>
<path d="M11686 10665 c-19 -20 -20 -26 -4 -60 13 -29 53 -43 77 -28 24 15 37
60 25 81 -15 23 -77 28 -98 7z"/>
<path d="M12560 10665 c-12 -15 -8 -93 6 -116 14 -23 42 -7 58 34 20 53 20 62
0 81 -20 20 -48 20 -64 1z"/>
<path d="M12708 10668 c-9 -7 -19 -27 -23 -45 -5 -27 -2 -37 19 -58 21 -21 34
-25 85 -25 47 0 63 4 73 18 7 11 23 24 36 31 26 14 29 52 6 75 -8 9 -19 16
-23 16 -15 0 -39 -26 -43 -45 -2 -12 -12 -21 -26 -23 -16 -3 -25 4 -33 25 -16
43 -42 54 -71 31z"/>
<path d="M13002 10664 c-29 -20 -29 -62 0 -73 14 -5 17 -10 10 -15 -28 -17
-12 -36 29 -36 41 0 41 1 35 30 -3 17 -9 44 -12 60 -8 40 -34 54 -62 34z"/>
<path d="M13130 10655 c-10 -12 -10 -21 -2 -40 20 -44 76 -27 70 21 -2 23 -9
30 -29 32 -14 2 -31 -4 -39 -13z"/>
<path d="M13282 10658 c-15 -15 -16 -55 -1 -63 16 -10 56 3 63 21 14 38 -33
71 -62 42z"/>
<path d="M13431 10661 c-8 -5 -10 -14 -6 -21 5 -9 4 -11 -3 -6 -19 12 -14 -9
7 -28 21 -19 48 -12 57 16 4 13 0 24 -13 33 -21 17 -24 17 -42 6z"/>
<path d="M13583 10636 c-12 -13 -19 -27 -16 -30 12 -11 41 -6 53 10 11 12 11
18 -1 30 -13 13 -18 11 -36 -10z m33 -15 c-4 -6 -14 -11 -22 -11 -12 0 -13 4
-3 21 7 14 14 18 21 11 6 -6 7 -15 4 -21z"/>
<path d="M12404 10463 c-9 -35 7 -57 45 -61 26 -3 33 1 41 23 15 40 -3 65 -45
65 -29 0 -36 -4 -41 -27z"/>
<path d="M12557 10483 c-4 -3 -7 -21 -7 -39 0 -24 5 -34 20 -39 45 -14 75 15
64 61 -5 19 -13 24 -38 24 -18 0 -36 -3 -39 -7z"/>
<path d="M12700 10476 c-31 -38 9 -89 54 -68 45 20 30 82 -20 82 -12 0 -27 -7
-34 -14z"/>
<path d="M12853 10483 c-7 -2 -13 -20 -13 -38 0 -25 5 -35 20 -40 28 -9 60 12
60 38 0 38 -29 56 -67 40z"/>
<path d="M12992 10481 c-8 -5 -12 -21 -10 -37 3 -26 7 -29 38 -29 31 0 35 3
38 29 4 29 -10 46 -38 46 -8 0 -21 -4 -28 -9z"/>
<path d="M13141 10481 c-37 -24 -14 -76 31 -69 17 2 24 11 26 32 5 39 -24 58
-57 37z"/>
<path d="M13270 10461 c-7 -15 -6 -24 6 -36 33 -32 94 4 65 39 -18 22 -58 20
-71 -3z"/>
<path d="M13421 10466 c-16 -20 3 -56 29 -56 26 0 45 36 29 56 -6 8 -19 14
-29 14 -10 0 -23 -6 -29 -14z"/>
<path d="M13565 10469 c-4 -6 -4 -13 -1 -16 3 -4 6 0 6 8 0 11 2 11 10 -1 8
-13 10 -12 10 3 0 19 -15 23 -25 6z"/>
<path d="M13603 10468 c3 -10 2 -20 -4 -23 -12 -8 -2 -25 14 -25 7 0 6 4 -3
10 -13 9 -7 14 13 11 13 -2 7 16 -10 30 -15 12 -16 12 -10 -3z"/>
<path d="M13560 10436 c0 -2 8 -10 18 -17 15 -13 16 -12 3 4 -13 16 -21 21
-21 13z"/>
<path d="M11480 10330 c0 -7 -8 -9 -20 -5 -26 8 -66 -16 -75 -45 -4 -13 0 -31
9 -45 21 -32 78 -35 98 -6 17 24 17 103 1 108 -7 3 -13 -1 -13 -7z"/>
<path d="M11558 10314 c-52 -28 -27 -104 34 -104 34 0 55 27 60 78 l4 42 -36
0 c-19 -1 -47 -8 -62 -16z"/>
<path d="M11980 10300 c-11 -11 -20 -27 -20 -35 0 -20 36 -55 56 -55 32 0 54
20 54 50 0 55 -52 78 -90 40z"/>
<path d="M12127 10302 c-36 -39 -10 -95 40 -86 39 7 43 12 43 49 0 51 -50 73
-83 37z"/>
<path d="M12278 10308 c-31 -24 -27 -75 8 -88 38 -15 64 3 64 45 0 47 -38 69
-72 43z"/>
<path d="M12412 10298 c-13 -13 -15 -37 -6 -62 9 -24 71 -21 84 3 17 32 -4 71
-38 71 -15 0 -33 -5 -40 -12z"/>
<path d="M12554 10296 c-3 -8 -4 -27 -2 -43 3 -25 7 -28 37 -28 43 0 60 23 43
59 -9 20 -19 26 -42 26 -17 0 -33 -6 -36 -14z"/>
<path d="M12702 10298 c-7 -7 -12 -21 -12 -33 0 -12 5 -26 12 -33 7 -7 21 -12
33 -12 12 0 26 5 33 12 7 7 12 21 12 33 0 12 -5 26 -12 33 -7 7 -21 12 -33 12
-12 0 -26 -5 -33 -12z"/>
<path d="M12841 10293 c-18 -35 -2 -73 32 -73 29 0 47 18 47 45 0 43 -59 63
-79 28z"/>
<path d="M12990 10296 c-28 -35 11 -93 48 -70 35 22 22 84 -18 84 -10 0 -23
-7 -30 -14z"/>
<path d="M13136 10294 c-9 -8 -16 -22 -16 -29 0 -13 26 -45 36 -45 19 0 44 24
44 43 0 43 -35 60 -64 31z"/>
<path d="M13270 10280 c-8 -15 -6 -24 9 -39 23 -23 58 -18 66 11 14 42 -54 68
-75 28z"/>
<path d="M13419 10284 c-17 -21 0 -48 34 -52 18 -2 27 2 32 18 13 41 -38 68
-66 34z"/>
<path d="M13583 10293 c-7 -2 -13 -9 -13 -14 0 -6 8 -5 20 1 14 7 20 7 20 0 0
-5 -4 -10 -10 -10 -5 0 -10 -7 -10 -16 0 -9 -5 -12 -12 -8 -6 4 -8 3 -5 -4 8
-11 44 -5 53 9 6 10 -13 49 -24 48 -4 0 -13 -3 -19 -6z m37 -33 c0 -5 -5 -10
-11 -10 -5 0 -7 5 -4 10 3 6 8 10 11 10 2 0 4 -4 4 -10z"/>
<path d="M12412 10118 c-28 -28 0 -88 41 -88 38 0 55 70 23 92 -17 12 -51 9
-64 -4z"/>
<path d="M12562 10118 c-27 -27 -8 -88 28 -88 21 0 50 31 50 53 0 37 -52 61
-78 35z"/>
<path d="M12708 10119 c-24 -13 -23 -52 2 -74 18 -17 21 -17 45 -1 28 19 32
47 9 70 -18 18 -32 20 -56 5z"/>
<path d="M12851 10116 c-20 -24 -10 -70 17 -74 46 -7 69 40 36 72 -19 20 -38
20 -53 2z"/>
<path d="M12990 10116 c-16 -20 -9 -56 13 -70 39 -24 79 44 41 71 -23 17 -39
16 -54 -1z"/>
<path d="M13135 10110 c-16 -18 -17 -23 -5 -45 14 -25 26 -30 54 -19 23 9 21
61 -3 74 -26 13 -25 13 -46 -10z"/>
<path d="M13270 10101 c-7 -15 -5 -24 8 -41 32 -40 85 -1 60 44 -12 22 -55 20
-68 -3z"/>
<path d="M13422 10108 c-17 -17 -15 -32 8 -53 20 -18 21 -18 43 3 17 18 19 26
11 40 -14 21 -45 27 -62 10z"/>
<path d="M13568 10104 c-7 -8 -34 -24 -58 -36 -37 -19 -48 -31 -64 -73 -10
-27 -22 -58 -27 -67 -5 -10 -5 -28 1 -43 13 -34 13 -132 0 -140 -10 -6 -8 -40
3 -51 4 -4 7 -135 7 -291 0 -243 2 -284 15 -289 8 -4 15 -14 15 -25 0 -26 31
-40 53 -24 9 6 17 20 17 29 0 12 9 16 35 16 23 0 35 -5 35 -14 0 -7 6 -19 14
-25 10 -9 15 -8 19 3 4 11 1 13 -10 9 -10 -4 -14 -2 -11 8 3 9 26 15 74 17 90
5 155 33 203 89 59 66 65 105 64 408 -2 281 -8 324 -59 392 -37 49 -125 88
-196 86 -35 -1 -63 3 -70 11 -22 21 -45 25 -60 10z m42 -10 c0 -2 -7 -4 -15
-4 -8 0 -15 4 -15 10 0 5 7 7 15 4 8 -4 15 -8 15 -10z m125 -173 c62 -35 66
-58 63 -338 l-3 -252 -34 -34 c-34 -36 -81 -53 -93 -34 -4 6 -5 14 -2 18 2 4
-4 13 -14 20 -15 13 -16 12 -3 -3 14 -19 12 -22 -13 -12 -9 3 -13 10 -10 15 3
5 3 9 0 9 -3 0 -12 -15 -20 -32 -13 -30 -15 -10 -15 207 0 153 4 244 11 252 7
9 7 13 -1 13 -7 0 -11 22 -11 60 0 47 3 60 15 60 8 0 15 2 15 4 0 2 2 11 5 19
4 8 0 14 -9 14 -8 0 -12 -6 -9 -14 3 -7 1 -13 -5 -13 -12 0 -11 18 2 39 6 10
5 12 -2 7 -7 -4 -12 -2 -12 3 0 18 111 12 145 -8z m-85 -651 c12 -7 10 -9 -8
-7 -12 0 -22 5 -22 9 0 11 12 10 30 -2z"/>
<path d="M13607 9709 c-4 -16 -3 -18 9 -8 7 6 11 15 8 20 -8 13 -11 11 -17
-12z"/>
<path d="M13623 9659 c-13 -5 -23 -16 -23 -24 0 -9 5 -13 10 -10 6 4 8 11 5
16 -4 5 1 9 9 9 19 0 20 -11 4 -30 -11 -12 -10 -12 4 -2 9 7 18 9 20 5 3 -4 3
-2 1 6 -2 8 1 18 7 21 19 12 -12 19 -37 9z"/>
<path d="M13604 9475 c-10 -25 3 -42 31 -42 16 0 22 2 15 7 -9 6 -9 9 1 13 10
4 10 6 2 6 -7 1 -13 5 -13 11 0 5 8 7 18 3 9 -3 14 -3 11 1 -14 15 -59 16 -65
1z m29 -27 c-9 -15 -23 -8 -23 12 0 17 2 19 14 8 8 -7 12 -16 9 -20z"/>
<path d="M14155 10070 c-64 -32 -65 -38 -65 -522 l0 -438 220 0 220 0 0 70 0
70 -145 0 -145 0 0 150 0 150 105 0 105 0 0 70 0 70 -105 0 -105 0 0 125 0
124 143 3 142 3 3 68 3 67 -28 2 c-15 0 -93 2 -173 2 -110 1 -152 -3 -175 -14z"/>
<path d="M15540 10076 c-113 -25 -202 -97 -254 -206 l-31 -65 -3 -348 -3 -348
433 3 433 3 62 29 c76 35 153 113 191 193 l27 58 0 345 0 345 -400 2 c-285 1
-416 -2 -455 -11z m758 -373 l-3 -278 -28 -57 c-16 -32 -46 -73 -68 -92 -68
-58 -95 -61 -487 -61 l-353 0 1 280 c0 154 5 296 10 316 18 65 93 136 170 160
14 4 191 8 393 8 l369 1 -4 -277z"/>
<path d="M15594 9866 c-3 -8 -4 -30 -2 -51 4 -43 -4 -38 217 -143 l164 -78
-187 -89 c-147 -71 -188 -94 -192 -112 -8 -32 3 -70 22 -77 11 -4 103 36 250
108 248 122 252 125 239 192 -6 33 -11 37 -241 149 -130 63 -242 115 -250 115
-8 0 -17 -6 -20 -14z"/>
<path d="M16715 10077 c-42 -19 -92 -79 -104 -124 -7 -24 -11 -189 -11 -435
l0 -398 58 0 c96 0 96 0 100 196 2 93 8 174 13 180 5 6 46 14 92 17 138 9 198
44 243 142 20 42 24 66 23 145 0 104 -12 151 -53 205 -47 61 -95 79 -221 82
-78 2 -119 -1 -140 -10z m221 -159 c51 -51 52 -190 1 -234 -29 -25 -113 -39
-151 -24 l-26 10 0 128 c0 89 4 132 13 141 8 9 32 11 75 9 51 -3 67 -9 88 -30z"/>
<path d="M17274 10080 c-11 -4 -33 -22 -47 -40 l-27 -32 0 -403 0 -403 25 -30
c40 -47 66 -53 234 -50 153 3 154 3 173 29 23 30 18 59 -15 89 -18 18 -35 20
-144 20 l-123 0 0 415 0 415 -27 -1 c-16 0 -37 -4 -49 -9z"/>
<path d="M17871 10053 c-34 -35 -39 -47 -59 -153 -12 -63 -49 -255 -82 -426
-33 -171 -60 -321 -60 -332 0 -20 5 -22 69 -22 79 0 71 -11 97 123 l17 87 102
0 102 0 19 -105 18 -105 78 0 c43 0 78 2 78 4 0 2 -29 149 -65 327 -36 178
-80 395 -97 482 l-31 157 -75 0 c-73 0 -75 -1 -111 -37z m125 -396 c25 -135
24 -156 -16 -177 -10 -5 -38 -10 -61 -10 l-42 0 6 38 c13 88 59 348 64 362 4
8 10 -7 15 -35 5 -27 21 -108 34 -178z"/>
<path d="M18226 10074 c-35 -35 -30 -58 65 -311 l94 -248 3 -197 3 -198 74 0
75 0 0 194 c0 166 3 200 19 242 11 27 33 85 50 129 16 44 57 151 90 239 34 87
61 160 61 162 0 2 -27 4 -60 4 -94 0 -108 -18 -178 -229 l-58 -173 -64 201
-64 201 -47 0 c-30 0 -53 -6 -63 -16z"/>
<path d="M14616 10064 c-20 -20 -20 -34 4 -141 34 -154 78 -362 115 -538 58
-282 54 -275 172 -275 60 0 72 3 77 18 3 9 44 221 92 469 71 370 84 456 74
468 -9 10 -31 15 -74 15 l-62 0 -33 -187 c-68 -390 -82 -469 -88 -498 -7 -33
-21 30 -104 458 l-44 227 -57 0 c-38 0 -62 -5 -72 -16z"/>
<path d="M12328 10022 c-14 -2 -32 -10 -39 -18 -18 -21 5 -35 51 -32 27 2 36
8 38 24 3 24 -10 31 -50 26z"/>
<path d="M12706 9938 c-23 -13 -21 -65 4 -78 41 -22 80 13 65 59 -7 21 -45 32
-69 19z"/>
<path d="M12844 9926 c-12 -31 0 -61 27 -64 33 -4 53 20 45 53 -5 20 -13 25
-37 25 -16 0 -32 -6 -35 -14z"/>
<path d="M12984 9926 c-11 -30 5 -66 29 -66 35 0 49 15 45 46 -2 25 -8 29 -36
32 -22 2 -34 -2 -38 -12z"/>
<path d="M13132 9927 c-24 -29 1 -71 39 -65 18 2 25 10 27 32 5 41 -41 64 -66
33z"/>
<path d="M13282 9928 c-26 -26 -9 -68 28 -68 11 0 40 29 40 40 0 13 -30 40
-44 40 -6 0 -17 -5 -24 -12z"/>
<path d="M12993 9753 c-7 -2 -13 -18 -13 -34 0 -22 6 -32 24 -39 18 -6 22 -14
19 -32 -6 -29 17 -51 49 -46 18 2 24 10 26 36 3 27 -1 35 -17 39 -16 4 -21 13
-21 38 0 39 -27 55 -67 38z"/>
<path d="M13135 9744 c-21 -21 -16 -46 12 -59 16 -7 23 -20 25 -45 3 -32 6
-35 33 -35 27 0 30 4 33 33 3 27 -1 35 -17 39 -16 4 -21 13 -21 38 0 45 -34
60 -65 29z"/>
<path d="M13288 9749 c-25 -14 -23 -59 2 -66 14 -4 20 -14 20 -32 0 -49 49
-70 70 -31 12 23 0 54 -26 64 -10 4 -14 12 -10 23 4 9 -1 24 -10 34 -19 22
-23 22 -46 8z"/>
<path d="M12827 9513 c-4 -3 -23 -9 -43 -12 -44 -7 -59 -28 -50 -65 7 -27 37
-46 100 -62 l29 -7 -7 46 c-5 31 -3 52 6 67 11 17 11 22 -2 30 -18 12 -24 12
-33 3z"/>
<path d="M12884 9486 c-3 -8 -4 -25 -2 -38 2 -19 9 -23 38 -23 33 0 35 2 35
35 0 32 -3 35 -33 38 -21 2 -34 -2 -38 -12z"/>
<path d="M13030 9485 c-7 -9 -10 -25 -6 -40 6 -22 11 -26 39 -23 27 3 33 8 35
32 5 43 -41 64 -68 31z"/>
<path d="M13182 9491 c-8 -5 -12 -21 -10 -37 3 -25 7 -29 33 -29 26 0 30 4 33
29 3 27 -10 46 -33 46 -5 0 -16 -4 -23 -9z"/>
<path d="M13328 9489 c-10 -5 -18 -21 -18 -34 0 -33 47 -47 67 -20 17 24 16
30 -3 49 -18 19 -23 19 -46 5z"/>
<path d="M12917 9383 c-4 -3 -7 -19 -7 -33 0 -15 -7 -33 -15 -40 -8 -7 -15
-25 -15 -41 0 -22 6 -30 25 -35 35 -9 56 12 53 52 -1 19 3 39 10 46 7 7 12 22
12 35 0 19 -5 23 -28 23 -16 0 -32 -3 -35 -7z"/>
<path d="M13020 9375 c-12 -14 -6 -35 10 -35 11 0 40 29 40 41 0 14 -36 11
-50 -6z"/>
<path d="M12739 9318 c0 -2 -3 -17 -5 -34 -5 -36 14 -57 47 -52 29 4 43 29 35
61 -5 23 -12 27 -41 27 -19 0 -35 -1 -36 -2z"/>
<path d="M13036 9307 c-38 -27 2 -95 42 -71 21 14 28 64 10 75 -18 12 -31 11
-52 -4z"/>
<path d="M13180 9306 c-15 -19 -9 -56 12 -69 34 -22 66 41 36 71 -16 16 -33
15 -48 -2z"/>
<path d="M13328 9309 c-10 -5 -18 -21 -18 -35 0 -33 37 -48 63 -26 22 19 22
35 -1 55 -21 20 -21 20 -44 6z"/>
<path d="M12738 9114 c-14 -31 -1 -57 31 -62 28 -4 51 14 51 42 0 50 -62 65
-82 20z"/>
<path d="M12892 9128 c-17 -17 -15 -67 3 -74 8 -4 26 -3 40 0 43 11 30 86 -15
86 -9 0 -21 -5 -28 -12z"/>
<path d="M13036 9125 c-31 -32 -13 -75 31 -75 16 0 25 8 29 27 12 48 -28 80
-60 48z"/>
<path d="M13180 9126 c-15 -19 -9 -56 12 -69 34 -22 66 41 36 71 -16 16 -33
15 -48 -2z"/>
<path d="M13325 9124 c-20 -20 -16 -53 7 -68 14 -8 22 -6 39 11 24 24 21 46
-10 62 -15 9 -23 7 -36 -5z"/>
<path d="M13652 9080 c-7 -11 -8 -20 -3 -20 9 0 24 30 18 36 -1 2 -8 -6 -15
-16z"/>
<path d="M13024 8925 c-8 -33 12 -57 45 -53 22 3 26 8 26 38 0 32 -3 35 -32
38 -28 3 -33 -1 -39 -23z"/>
<path d="M13174 8936 c-3 -8 -4 -25 -2 -38 2 -18 9 -23 33 -23 28 0 30 3 30
35 0 31 -3 35 -28 38 -17 2 -29 -2 -33 -12z"/>
<path d="M13323 8943 c-21 -8 -16 -61 6 -68 40 -12 70 20 51 56 -10 18 -31 23
-57 12z"/>
<path d="M13477 8942 c-13 -3 -17 -11 -15 -30 2 -23 8 -27 33 -27 23 0 31 5
33 22 4 24 -22 42 -51 35z"/>
<path d="M13627 8924 c5 -15 43 -26 43 -13 0 5 -8 9 -17 9 -15 0 -16 2 -3 10
12 7 10 9 -7 8 -12 -1 -19 -7 -16 -14z"/>
<path d="M13600 8899 c0 -5 5 -7 10 -4 6 3 10 8 10 11 0 2 -4 4 -10 4 -5 0
-10 -5 -10 -11z"/>
<path d="M13626 8892 c-3 -4 4 -9 15 -9 23 -2 25 3 4 10 -8 4 -16 3 -19 -1z"/>
<path d="M13428 8822 c-20 -47 -38 -62 -67 -56 -34 7 -56 -16 -47 -51 7 -29
49 -35 64 -9 11 20 92 27 85 8 -7 -18 13 -25 41 -14 31 11 35 45 7 60 -25 13
-34 13 -26 0 3 -5 0 -7 -8 -4 -11 4 -14 16 -10 43 4 29 1 39 -11 44 -12 5 -20
-1 -28 -21z"/>
<path d="M14116 8801 c-21 -40 -20 -61 3 -61 22 0 54 44 49 68 -6 29 -36 25
-52 -7z"/>
<path d="M12892 8768 c-16 -16 -15 -63 1 -75 6 -5 23 -7 37 -4 18 5 26 15 28
36 5 43 -38 71 -66 43z"/>
<path d="M13031 8756 c-8 -10 -11 -26 -7 -41 6 -22 11 -26 39 -23 29 3 32 6
32 38 0 30 -4 35 -26 38 -14 2 -31 -4 -38 -12z"/>
<path d="M13181 8756 c-7 -8 -11 -25 -9 -38 2 -18 9 -23 33 -23 28 0 30 3 30
35 0 28 -4 36 -21 38 -11 2 -26 -4 -33 -12z"/>
<path d="M13609 8743 c-13 -16 -12 -17 4 -4 9 7 17 15 17 17 0 8 -8 3 -21 -13z"/>
<path d="M13653 8725 c-7 -8 -9 -16 -4 -19 5 -3 12 1 15 10 8 22 4 25 -11 9z"/>
<path d="M13605 8710 c4 -6 11 -8 16 -5 14 9 11 15 -7 15 -8 0 -12 -5 -9 -10z"/>
<path d="M13912 8666 c-34 -11 -37 -23 -9 -40 13 -8 22 -6 39 12 28 28 14 41
-30 28z"/>
<path d="M14022 8654 c-28 -20 -28 -34 1 -34 25 0 67 26 67 41 0 14 -43 11
-68 -7z"/>
<path d="M14133 8662 c-15 -9 -5 -54 11 -49 13 4 21 57 9 57 -4 0 -13 -4 -20
-8z"/>
<path d="M13727 8631 c-9 -16 -17 -45 -17 -65 0 -32 3 -36 25 -36 13 0 33 9
44 21 19 21 19 21 -1 58 -29 52 -32 54 -51 22z"/>
<path d="M13640 8646 c0 -20 23 -56 35 -56 21 0 30 27 15 45 -11 13 -50 22
-50 11z"/>
<path d="M13634 8565 c12 -9 13 -14 3 -24 -9 -10 -8 -11 7 -5 14 5 17 4 12 -5
-5 -7 -17 -10 -29 -7 -15 4 -17 2 -8 -7 15 -15 48 4 42 25 -2 7 -4 18 -4 23 0
6 -9 11 -19 11 -17 0 -17 -2 -4 -11z"/>
<path d="M13718 8463 c-22 -6 -23 -31 -2 -61 19 -27 45 -28 69 -2 15 17 16 24
7 45 -11 25 -31 29 -74 18z"/>
<path d="M13467 8394 c-4 -4 -7 -20 -7 -36 0 -23 4 -28 24 -28 32 0 53 26 39
48 -11 18 -44 27 -56 16z"/>
<path d="M14488 8393 c-33 -8 -19 -57 23 -78 50 -26 129 -15 143 21 11 29 -13
44 -70 44 -29 0 -56 5 -59 10 -6 10 -9 11 -37 3z"/>
<path d="M14344 8376 c-7 -18 8 -68 22 -73 19 -6 36 15 37 48 2 30 -1 34 -26
37 -17 2 -29 -2 -33 -12z"/>
<path d="M14812 8357 c-12 -13 -22 -31 -22 -41 0 -16 5 -17 38 -11 47 9 48 10
36 42 -12 35 -26 38 -52 10z"/>
<path d="M13322 8208 c-28 -28 -1 -75 37 -63 11 3 23 15 26 26 12 38 -35 65
-63 37z"/>
<path d="M13473 8213 c-7 -2 -13 -18 -13 -34 0 -26 3 -29 30 -29 34 0 49 23
33 49 -11 17 -30 23 -50 14z"/>
<path d="M13646 8201 c-3 -5 1 -14 8 -20 12 -10 13 -8 9 8 -6 23 -9 25 -17 12z"/>
<path d="M13270 8092 c0 -6 -3 -17 -6 -26 -4 -12 0 -16 16 -16 16 0 21 5 18
22 -3 21 -28 39 -28 20z"/>
<path d="M13382 8088 c-18 -18 -14 -36 8 -43 24 -8 46 7 53 35 4 16 0 20 -22
20 -15 0 -32 -5 -39 -12z"/>
<path d="M13196 8074 c-4 -9 -4 -19 -1 -22 7 -8 35 19 29 29 -8 14 -21 11 -28
-7z"/>
<path d="M13328 8063 c7 -3 16 -2 19 1 4 3 -2 6 -13 5 -11 0 -14 -3 -6 -6z"/>
<path d="M13877 8006 c-7 -19 18 -42 28 -26 8 13 -1 40 -14 40 -5 0 -11 -6
-14 -14z"/>
<path d="M14030 7998 c0 -16 5 -28 10 -28 13 0 13 20 0 40 -8 12 -10 9 -10
-12z"/>
<path d="M14170 7996 c0 -8 5 -18 10 -21 6 -3 10 3 10 14 0 12 -4 21 -10 21
-5 0 -10 -6 -10 -14z"/>
<path d="M14321 7994 c0 -11 3 -14 6 -6 3 7 2 16 -1 19 -3 4 -6 -2 -5 -13z"/>
<path d="M14100 7781 c-33 -9 -38 -37 -8 -43 39 -7 73 6 76 30 4 24 -16 27
-68 13z"/>
<path d="M14590 7275 c-38 -13 -62 -47 -58 -83 2 -19 14 -28 55 -42 30 -11 55
-14 59 -9 3 5 2 29 -1 53 -5 28 -3 46 4 50 36 22 -12 47 -59 31z"/>
<path d="M14720 7151 c-24 -7 -26 -12 -22 -61 3 -29 36 -25 56 6 18 26 18 56
1 60 -5 1 -21 -1 -35 -5z"/>
<path d="M14810 7130 c0 -11 7 -20 15 -20 8 0 19 9 25 20 9 18 8 20 -15 20
-18 0 -25 -5 -25 -20z"/>
<path d="M14530 7080 c0 -5 7 -10 16 -10 8 0 12 5 9 10 -3 6 -10 10 -16 10 -5
0 -9 -4 -9 -10z"/>
<path d="M14424 6915 c-8 -20 13 -45 38 -45 16 0 17 3 8 20 -6 11 -18 20 -26
20 -8 0 -12 5 -9 10 3 6 4 10 0 10 -3 0 -8 -7 -11 -15z"/>
<path d="M14138 6193 c6 -2 18 -2 25 0 6 3 1 5 -13 5 -14 0 -19 -2 -12 -5z"/>
<path d="M14288 6193 c7 -3 16 -2 19 1 4 3 -2 6 -13 5 -11 0 -14 -3 -6 -6z"/>
<path d="M13266 6074 c-9 -8 -16 -22 -16 -29 0 -7 7 -21 16 -29 20 -20 38 -20
59 0 10 10 13 24 9 38 -12 38 -42 47 -68 20z"/>
<path d="M13418 6079 c-24 -13 -23 -56 1 -69 41 -22 72 16 46 56 -17 27 -22
28 -47 13z"/>
<path d="M13549 6064 c-9 -11 -10 -20 -2 -32 25 -41 86 -14 63 27 -13 25 -42
27 -61 5z"/>
<path d="M13722 6064 c-7 -8 -8 -14 -3 -14 10 0 25 19 20 25 -2 1 -10 -3 -17
-11z"/>
<path d="M13692 6050 c0 -14 2 -19 5 -12 2 6 2 18 0 25 -3 6 -5 1 -5 -13z"/>
<path d="M13740 6038 c0 -9 -6 -19 -12 -21 -10 -4 -10 -6 0 -6 14 -1 28 26 18
36 -3 4 -6 -1 -6 -9z"/>
<path d="M12686 5894 c-23 -23 -20 -51 9 -70 23 -15 27 -15 50 0 30 20 33 61
6 76 -27 14 -47 13 -65 -6z"/>
<path d="M12832 5898 c-27 -27 -10 -78 27 -78 33 0 51 17 51 47 0 35 -53 56
-78 31z"/>
<path d="M12975 5894 c-18 -18 -19 -29 -5 -55 21 -38 80 -18 80 27 0 36 -49
54 -75 28z"/>
<path d="M13117 5893 c-12 -12 -7 -50 8 -63 35 -29 85 14 63 54 -9 16 -58 22
-71 9z"/>
<path d="M13260 5885 c-15 -18 -4 -52 19 -60 40 -12 70 20 51 56 -13 22 -52
25 -70 4z"/>
<path d="M13407 5893 c-26 -25 12 -80 46 -67 20 7 29 45 15 61 -11 14 -50 18
-61 6z"/>
<path d="M13556 5887 c-28 -20 -13 -57 24 -57 21 0 29 5 32 24 8 41 -21 58
-56 33z"/>
<path d="M13698 5865 c-6 -30 -2 -32 12 -6 6 11 6 22 1 25 -5 3 -11 -5 -13
-19z"/>
<path d="M13720 5866 c0 -2 7 -9 15 -16 13 -11 14 -10 9 4 -5 14 -24 23 -24
12z"/>
<path d="M11931 5786 c-21 -25 -9 -79 20 -95 24 -13 29 -13 53 2 33 22 37 80
7 97 -28 14 -67 12 -80 -4z"/>
<path d="M12076 5778 c-22 -32 -20 -51 10 -79 23 -22 27 -22 51 -9 55 31 46
102 -14 108 -23 2 -35 -3 -47 -20z"/>
<path d="M12228 5789 c-21 -12 -24 -69 -6 -87 18 -18 63 -14 81 6 22 25 21 48
-3 72 -22 22 -46 25 -72 9z"/>
<path d="M12507 5783 c-12 -11 -8 -68 5 -81 18 -18 53 -15 71 6 20 22 22 53 5
70 -13 13 -70 17 -81 5z"/>
<path d="M12652 5778 c-20 -20 -15 -66 9 -78 47 -26 88 11 75 66 -5 19 -13 24
-39 24 -18 0 -38 -5 -45 -12z"/>
<path d="M12803 5778 c-21 -28 -22 -49 -3 -68 46 -46 98 0 74 64 -7 19 -57 21
-71 4z"/>
<path d="M12942 5778 c-21 -21 -15 -68 10 -77 49 -18 86 17 68 63 -7 20 -17
26 -38 26 -15 0 -33 -5 -40 -12z"/>
<path d="M13087 5772 c-10 -10 -17 -30 -16 -43 1 -13 -2 -39 -6 -56 -7 -29 -5
-33 14 -33 11 0 21 3 21 8 0 4 16 24 35 45 38 41 40 49 25 78 -13 24 -52 25
-73 1z"/>
<path d="M13232 5778 c-7 -7 -12 -21 -12 -33 0 -47 62 -63 81 -21 22 47 -33
90 -69 54z"/>
<path d="M13376 5774 c-9 -8 -16 -22 -16 -29 0 -16 27 -45 41 -45 24 0 49 22
49 43 0 44 -43 62 -74 31z"/>
<path d="M13521 5777 c-16 -16 -13 -53 4 -67 33 -28 82 20 57 56 -11 16 -49
23 -61 11z"/>
<path d="M13660 5765 c-14 -17 -5 -51 16 -59 22 -8 54 11 54 32 0 38 -46 56
-70 27z"/>
<path d="M13804 5756 c-8 -32 2 -46 31 -46 33 0 51 33 29 54 -24 24 -53 20
-60 -8z"/>
<path d="M13986 5762 c-3 -5 1 -9 9 -9 8 0 12 4 9 9 -3 4 -7 8 -9 8 -2 0 -6
-4 -9 -8z"/>
<path d="M13940 5741 c0 -5 7 -14 15 -21 10 -9 15 -9 15 -1 0 6 5 11 11 11 5
0 7 -4 4 -10 -3 -5 -2 -10 4 -10 5 0 12 4 15 9 8 12 -20 22 -41 14 -11 -4 -14
-3 -9 5 4 7 2 12 -3 12 -6 0 -11 -4 -11 -9z"/>
<path d="M11850 5667 c0 -19 21 -37 42 -37 21 0 24 20 6 38 -16 16 -48 15 -48
-1z"/>
<path d="M12513 5603 c-16 -6 -17 -65 -1 -81 15 -15 64 -16 73 -2 9 15 25 12
25 -5 0 -21 27 -30 45 -15 13 11 15 6 15 -33 0 -31 -5 -47 -15 -51 -23 -8 -18
-52 10 -96 28 -45 39 -48 73 -21 24 17 24 18 8 66 -10 27 -25 54 -34 61 -16
13 -16 13 0 14 21 0 40 33 32 55 -4 9 -7 35 -8 57 -1 50 -22 67 -63 52 -17 -6
-29 -18 -31 -32 -4 -27 -42 -31 -42 -4 0 35 -44 53 -87 35z"/>
<path d="M12804 5602 c-19 -12 -22 -50 -7 -72 13 -18 21 -21 52 -15 53 10 97
55 53 55 -9 0 -23 9 -30 20 -12 20 -47 26 -68 12z"/>
<path d="M12948 5599 c-27 -15 -24 -68 4 -78 31 -11 68 1 86 27 12 18 12 22 1
22 -8 0 -20 9 -27 20 -13 22 -37 25 -64 9z"/>
<path d="M13092 5594 c-27 -18 -28 -35 -4 -64 17 -21 21 -22 48 -9 37 18 43
52 12 73 -28 20 -28 20 -56 0z"/>
<path d="M13224 5575 c-8 -33 12 -57 44 -53 58 7 53 70 -6 76 -26 3 -32 -1
-38 -23z"/>
<path d="M13369 5576 c-15 -33 4 -58 39 -54 55 7 54 70 -1 76 -21 3 -30 -3
-38 -22z"/>
<path d="M13520 5585 c-26 -32 13 -81 48 -59 34 22 22 74 -18 74 -10 0 -23 -7
-30 -15z"/>
<path d="M13660 5581 c-20 -38 13 -71 51 -51 21 12 25 40 7 58 -18 18 -46 14
-58 -7z"/>
<path d="M13810 5585 c-19 -23 -8 -50 22 -53 35 -4 56 29 32 52 -19 20 -38 20
-54 1z"/>
<path d="M13946 5574 c-4 -10 -2 -13 6 -8 7 5 9 2 5 -8 -4 -12 0 -15 16 -11
18 4 20 3 7 -7 -13 -10 -12 -11 3 -6 10 3 22 6 25 6 4 0 0 5 -8 10 -13 9 -13
11 0 20 9 6 10 10 3 10 -6 0 -15 -5 -18 -10 -4 -6 -11 -7 -17 -4 -6 4 -5 10 3
15 11 7 11 9 -2 9 -9 0 -20 -7 -23 -16z"/>
<path d="M12512 5418 c-7 -7 -12 -24 -12 -38 0 -33 17 -50 50 -50 34 0 50 17
50 52 0 41 -59 65 -88 36z"/>
<path d="M12797 5412 c-28 -30 -5 -82 37 -82 30 0 46 18 46 52 0 44 -53 64
-83 30z"/>
<path d="M12948 5419 c-37 -21 -12 -89 32 -89 17 0 50 34 50 52 0 13 -39 48
-52 48 -7 0 -21 -5 -30 -11z"/>
<path d="M13092 5414 c-27 -18 -28 -45 -4 -67 23 -21 46 -22 66 -1 21 21 20
40 -4 64 -24 24 -29 24 -58 4z"/>
<path d="M13233 5413 c-17 -6 -17 -58 0 -72 16 -13 57 -6 69 11 27 44 -17 83
-69 61z"/>
<path d="M13368 5394 c-11 -23 -10 -29 10 -45 28 -22 66 -12 70 20 8 52 -59
72 -80 25z"/>
<path d="M13520 5406 c-6 -8 -10 -25 -8 -38 2 -19 9 -23 38 -23 29 0 36 4 38
23 4 28 -14 52 -38 52 -10 0 -23 -7 -30 -14z"/>
<path d="M13665 5404 c-19 -20 -16 -43 8 -58 34 -22 73 27 47 59 -16 19 -35
19 -55 -1z"/>
<path d="M13818 5409 c-25 -14 -23 -56 3 -64 42 -13 71 43 35 67 -14 10 -17 9
-38 -3z"/>
<path d="M13945 5392 c-3 -9 2 -24 13 -34 18 -19 19 -18 14 11 -3 20 0 31 7
31 7 0 9 -4 6 -10 -3 -5 -2 -17 3 -26 8 -14 10 -13 23 2 8 10 9 15 2 11 -6 -4
-14 -3 -18 3 -3 5 -1 10 6 10 21 0 1 13 -25 15 -15 2 -27 -3 -31 -13z"/>
<path d="M13441 5291 c-21 -14 1 -57 39 -79 16 -9 30 -22 30 -29 0 -7 9 -17
20 -23 25 -13 60 3 60 28 0 10 5 23 11 29 6 6 9 21 7 34 -3 21 -9 24 -52 27
-27 2 -57 7 -67 13 -22 11 -30 11 -48 0z"/>
<path d="M13773 5257 c-31 -30 -30 -57 1 -57 15 0 26 -7 29 -20 6 -25 38 -26
60 -2 15 16 15 20 1 40 -8 12 -21 22 -28 22 -8 0 -16 9 -19 20 -7 25 -16 24
-44 -3z"/>
<path d="M13370 5225 c-17 -20 -5 -62 20 -70 44 -14 80 41 48 73 -17 17 -53
15 -68 -3z"/>
<path d="M13666 5224 c-31 -30 -8 -69 36 -62 26 3 37 41 18 64 -16 18 -35 18
-54 -2z"/>
<path d="M13967 5223 c-11 -10 -8 -20 9 -37 8 -9 11 -16 5 -16 -5 0 -13 5 -16
10 -3 6 -11 10 -18 10 -7 0 -5 -7 5 -16 10 -10 23 -14 34 -10 16 6 16 8 -1 26
-9 10 -14 24 -10 29 7 12 2 15 -8 4z"/>
<path d="M13993 5215 c0 -8 4 -12 9 -9 5 3 6 10 3 15 -9 13 -12 11 -12 -6z"/>
<path d="M12518 5093 c-9 -2 -20 -20 -25 -40 -10 -42 -28 -53 -38 -23 -4 12
-17 26 -30 32 -30 13 -70 -9 -78 -44 -3 -13 -8 -33 -12 -45 -5 -16 -2 -23 15
-28 11 -4 26 -2 33 3 21 16 55 20 60 8 8 -19 128 -18 149 1 13 12 29 14 64 9
71 -9 103 29 73 87 -20 38 -33 37 -72 -1 l-38 -37 -29 35 c-16 19 -30 38 -30
43 0 7 -14 8 -42 0z"/>
<path d="M12228 5059 c-20 -11 -25 -73 -8 -84 6 -4 8 -10 5 -15 -3 -4 15 -8
39 -8 41 1 45 3 50 31 9 42 8 45 -14 67 -22 22 -46 25 -72 9z"/>
<path d="M12791 5043 c-27 -51 23 -98 68 -66 25 17 28 68 5 77 -30 11 -63 6
-73 -11z"/>
<path d="M12942 5048 c-7 -7 -12 -21 -12 -33 0 -29 19 -45 52 -45 44 0 60 57
24 82 -17 12 -51 9 -64 -4z"/>
<path d="M13085 5040 c-40 -44 27 -97 69 -54 21 20 20 37 -2 57 -25 22 -45 21
-67 -3z"/>
<path d="M13232 5048 c-7 -7 -12 -21 -12 -33 0 -49 62 -63 82 -19 11 23 10 29
-11 45 -27 22 -42 24 -59 7z"/>
<path d="M13375 5040 c-34 -37 10 -84 55 -60 31 17 23 61 -12 71 -20 5 -31 2
-43 -11z"/>
<path d="M13517 5043 c-14 -14 -6 -53 13 -63 38 -20 70 12 54 54 -6 16 -54 22
-67 9z"/>
<path d="M13659 5034 c-17 -20 -1 -48 31 -52 30 -5 44 11 36 42 -7 30 -45 36
-67 10z"/>
<path d="M13810 5035 c-6 -8 -10 -22 -8 -32 4 -25 48 -30 65 -8 26 37 -27 76
-57 40z"/>
<path d="M13986 5041 c-8 -13 4 -41 17 -41 7 0 7 4 -1 12 -15 15 -16 31 0 22
7 -4 8 -3 4 4 -9 14 -13 15 -20 3z"/>
<path d="M13956 5027 c3 -10 9 -15 12 -12 3 3 0 11 -7 18 -10 9 -11 8 -5 -6z"/>
<path d="M13960 4989 c0 -5 9 -9 20 -9 11 0 20 2 20 4 0 2 -9 6 -20 9 -11 3
-20 1 -20 -4z"/>
<path d="M11790 4870 c-11 -11 -20 -29 -20 -40 0 -25 34 -60 58 -60 31 0 62
29 62 59 0 55 -61 80 -100 41z"/>
<path d="M13243 4869 c-25 -9 -31 -47 -11 -67 16 -16 53 -15 68 3 27 33 -15
81 -57 64z"/>
<path d="M13370 4855 c-21 -25 3 -67 37 -63 34 4 52 31 37 56 -15 23 -57 27
-74 7z"/>
<path d="M13514 4845 c-7 -29 10 -55 36 -55 26 0 43 26 36 55 -5 20 -13 25
-36 25 -23 0 -31 -5 -36 -25z"/>
<path d="M13666 4854 c-20 -20 -20 -27 2 -47 25 -23 27 -23 45 -8 21 17 22 57
1 65 -24 9 -31 8 -48 -10z"/>
<path d="M13810 4855 c-19 -23 -8 -50 22 -53 35 -4 56 29 32 52 -19 20 -38 20
-54 1z"/>
<path d="M13947 4848 c-7 -20 12 -48 31 -47 14 0 14 2 2 6 -22 9 -31 26 -17
35 21 14 37 9 31 -9 -5 -15 -4 -16 5 -3 6 8 11 18 11 23 0 12 -58 8 -63 -5z"/>
<path d="M13522 4678 c-18 -18 -15 -56 6 -66 9 -6 27 -6 40 -1 38 14 24 79
-18 79 -9 0 -21 -5 -28 -12z"/>
<path d="M13658 4665 c-14 -30 3 -55 37 -55 35 0 51 62 19 74 -29 11 -44 6
-56 -19z"/>
<path d="M13810 4675 c-15 -18 -10 -45 12 -59 14 -8 22 -6 40 11 21 22 21 23
3 43 -21 24 -38 25 -55 5z"/>
<path d="M13960 4680 c-8 -5 -10 -10 -5 -10 6 0 3 -5 -5 -10 -13 -9 -13 -11 0
-20 8 -5 11 -10 5 -10 -5 0 -3 -5 5 -10 23 -15 33 -12 16 6 -18 18 -19 24 -6
44 8 12 10 9 10 -12 0 -29 13 -37 26 -16 4 7 3 8 -4 4 -7 -4 -12 -2 -12 3 0 6
5 11 11 11 8 0 8 5 -1 15 -15 17 -20 18 -40 5z"/>
<path d="M13370 4495 c-17 -21 -5 -61 21 -68 30 -8 48 2 55 29 8 30 -11 54
-41 54 -12 0 -28 -7 -35 -15z"/>
<path d="M13522 4498 c-18 -18 -15 -56 6 -66 9 -6 27 -6 40 -1 38 14 24 79
-18 79 -9 0 -21 -5 -28 -12z"/>
<path d="M13666 4494 c-31 -30 -8 -69 36 -62 30 4 38 46 12 65 -23 17 -29 16
-48 -3z"/>
<path d="M13816 4491 c-20 -22 -20 -47 0 -55 24 -9 31 -8 48 10 12 11 13 20 6
34 -14 26 -36 31 -54 11z"/>
<path d="M13956 4487 c-16 -11 -17 -17 -7 -33 11 -18 12 -17 6 4 -6 20 8 32
18 15 2 -5 2 -2 1 5 -2 6 1 12 6 12 6 0 10 -6 10 -14 0 -8 4 -17 9 -20 12 -8
8 27 -4 36 -14 11 -19 10 -39 -5z"/>
<path d="M13975 4440 c-3 -5 1 -10 10 -10 9 0 13 5 10 10 -3 6 -8 10 -10 10
-2 0 -7 -4 -10 -10z"/>
<path d="M13804 4294 c-7 -28 7 -44 38 -44 23 0 39 30 27 52 -15 28 -57 23
-65 -8z"/>
<path d="M13957 4314 c-3 -3 -3 -13 0 -22 5 -11 3 -13 -6 -7 -10 6 -11 3 -2
-14 11 -21 42 -24 58 -6 5 4 2 5 -4 1 -7 -4 -13 -3 -13 3 0 5 6 11 12 13 9 3
8 9 -4 21 -17 18 -30 21 -41 11z m28 -14 c3 -5 1 -18 -4 -27 -11 -19 -11 -19
-15 15 -3 23 8 30 19 12z"/>
<path d="M13533 4165 c-22 -10 -33 -23 -38 -46 -8 -36 3 -51 50 -67 17 -5 38
-13 48 -17 14 -6 17 -2 17 21 0 16 -4 35 -9 43 -6 9 -4 22 6 37 27 43 -9 57
-74 29z"/>
<path d="M13660 4125 c-22 -26 -8 -50 30 -50 29 0 36 4 38 24 6 38 -43 57 -68
26z"/>
<path d="M13810 4125 c-20 -25 -8 -50 25 -50 24 0 31 5 33 24 6 37 -34 55 -58
26z"/>
<path d="M13956 4124 c-9 -8 -16 -21 -16 -27 0 -7 5 -4 11 6 5 9 17 17 24 17
8 0 15 5 15 10 0 15 -16 12 -34 -6z"/>
<path d="M13970 4100 c-15 -9 -5 -30 15 -30 18 0 27 27 11 33 -7 3 -19 2 -26
-3z m20 -10 c0 -5 -5 -10 -11 -10 -5 0 -7 5 -4 10 3 6 8 10 11 10 2 0 4 -4 4
-10z"/>
<path d="M13654 4037 c-7 -19 13 -67 29 -67 13 0 47 49 47 69 0 16 -70 14 -76
-2z"/>
<path d="M13770 4030 c0 -23 4 -24 31 -10 27 15 24 30 -6 30 -18 0 -25 -5 -25
-20z"/>
<path d="M13495 3980 c-3 -5 -1 -10 4 -10 6 0 11 5 11 10 0 6 -2 10 -4 10 -3
0 -8 -4 -11 -10z"/>
<path d="M13517 3953 c-17 -16 -6 -63 18 -79 30 -19 53 -16 71 12 13 18 12 24
-7 47 -20 26 -66 37 -82 20z"/>
<path d="M13660 3945 c-17 -20 -9 -45 22 -68 25 -19 28 -19 52 -3 31 20 33 35
6 64 -24 25 -62 29 -80 7z"/>
<path d="M13810 3945 c-19 -22 -4 -64 25 -71 57 -14 83 26 41 63 -31 27 -49
29 -66 8z"/>
<path d="M13950 3935 c-19 -23 13 -67 47 -63 38 4 52 32 29 57 -22 25 -58 27
-76 6z"/>
<path d="M14100 3929 c-9 -16 -8 -25 6 -40 35 -39 87 -11 66 36 -15 32 -57 34
-72 4z"/>
<path d="M14248 3924 c-11 -23 -10 -28 7 -40 28 -21 48 -13 52 20 7 49 -39 64
-59 20z"/>
<path d="M14396 3928 c-11 -16 -13 -25 -4 -35 17 -20 37 -15 50 13 10 21 9 27
-3 35 -21 13 -26 11 -43 -13z"/>
<path d="M14535 3919 c-6 -19 7 -38 26 -39 14 0 31 31 25 45 -8 23 -44 18 -51
-6z"/>
<path d="M14684 3926 c-3 -9 -3 -23 0 -31 8 -22 48 0 44 23 -4 22 -36 28 -44
8z"/>
<path d="M14830 3921 c-7 -14 -7 -22 1 -27 14 -8 43 21 35 35 -11 17 -24 13
-36 -8z"/>
<path d="M13393 3787 c14 -22 14 -26 2 -31 -19 -7 -19 -50 -1 -65 8 -7 27 -11
43 -9 23 2 29 9 31 33 2 16 -2 34 -10 40 -7 6 -18 19 -24 30 -6 11 -21 22 -34
23 -23 4 -23 3 -7 -21z"/>
<path d="M13536 3754 c-21 -21 -20 -37 4 -59 41 -37 95 9 63 54 -17 25 -46 27
-67 5z"/>
<path d="M13688 3759 c-22 -12 -23 -52 -3 -69 19 -15 61 -6 69 16 7 19 -19 64
-37 64 -6 0 -20 -5 -29 -11z"/>
<path d="M13822 3748 c-19 -19 -14 -36 14 -54 24 -16 26 -16 47 5 17 17 19 25
11 39 -14 21 -55 27 -72 10z"/>
<path d="M13973 3754 c-20 -9 -15 -52 6 -64 28 -15 71 21 55 47 -11 18 -39 26
-61 17z"/>
<path d="M14110 3740 c-9 -16 -8 -25 1 -36 26 -32 84 0 62 34 -16 26 -50 27
-63 2z"/>
<path d="M14259 3738 c-9 -16 -7 -24 6 -37 10 -9 15 -11 11 -4 -3 6 -3 13 1
16 5 2 2 2 -4 1 -20 -5 -15 10 7 24 17 10 20 10 20 -3 0 -8 5 -15 10 -15 17 0
-5 33 -24 36 -9 1 -21 -7 -27 -18z"/>
<path d="M14295 3700 c-3 -5 -1 -10 4 -10 6 0 11 5 11 10 0 6 -2 10 -4 10 -3
0 -8 -4 -11 -10z"/>
<path d="M13822 3568 c-28 -28 -3 -72 39 -66 30 4 47 33 33 56 -14 21 -55 27
-72 10z"/>
<path d="M13973 3574 c-7 -3 -13 -16 -13 -29 0 -44 50 -60 74 -22 20 32 -22
67 -61 51z"/>
<path d="M14113 3560 c-16 -24 -8 -47 18 -55 38 -12 65 35 37 63 -18 18 -42
15 -55 -8z"/>
<path d="M14280 3566 c0 -19 19 -31 31 -19 5 5 0 14 -11 21 -17 10 -20 10 -20
-2z"/>
<path d="M14255 3550 c-7 -12 2 -30 16 -30 5 0 9 5 9 11 0 5 -5 7 -12 3 -8 -5
-9 -2 -5 9 7 19 2 23 -8 7z"/>
<path d="M14289 3513 c-13 -16 -12 -17 4 -4 9 7 17 15 17 17 0 8 -8 3 -21 -13z"/>
<path d="M13680 3386 c-6 -8 -10 -25 -8 -38 4 -30 56 -38 75 -12 17 23 16 29
-3 48 -19 20 -48 20 -64 2z"/>
<path d="M13822 3388 c-27 -27 -6 -68 35 -68 31 0 52 42 33 65 -15 18 -51 20
-68 3z"/>
<path d="M13970 3385 c-26 -32 13 -81 48 -59 34 22 22 74 -18 74 -10 0 -23 -7
-30 -15z"/>
<path d="M14115 3380 c-18 -20 -18 -21 3 -43 18 -17 26 -19 40 -11 23 15 26
38 7 58 -21 21 -28 20 -50 -4z"/>
<path d="M14273 3392 c-19 -12 -21 -57 -3 -57 8 0 18 -4 21 -8 3 -4 12 0 20 9
12 16 12 17 -2 12 -10 -4 -16 -1 -16 8 0 9 6 13 14 10 8 -3 11 -1 8 5 -4 5
-16 7 -28 3 -19 -6 -20 -5 -8 10 15 17 13 20 -6 8z m7 -42 c0 -5 -5 -10 -11
-10 -5 0 -7 5 -4 10 3 6 8 10 11 10 2 0 4 -4 4 -10z"/>
<path d="M13680 3206 c-6 -8 -10 -25 -8 -38 2 -19 9 -23 37 -23 45 0 62 26 37
54 -22 24 -49 27 -66 7z"/>
<path d="M13824 3199 c-24 -26 -8 -54 31 -54 39 0 55 28 31 54 -24 26 -38 26
-62 0z"/>
<path d="M13963 3194 c-14 -38 41 -71 66 -40 7 8 10 24 6 36 -8 25 -62 28 -72
4z"/>
<path d="M14111 3196 c-16 -19 2 -56 28 -56 28 0 47 28 34 48 -13 22 -47 27
-62 8z"/>
<path d="M14294 3195 c8 -9 13 -23 10 -33 -5 -15 -4 -15 6 1 12 19 -1 47 -22
47 -5 0 -3 -7 6 -15z"/>
<path d="M14268 3153 c7 -3 16 -2 19 1 4 3 -2 6 -13 5 -11 0 -14 -3 -6 -6z"/>
<path d="M12816 3028 c-21 -29 -20 -51 2 -71 26 -23 58 -21 76 5 21 30 20 44
-4 68 -26 26 -55 25 -74 -2z"/>
<path d="M12966 3037 c-12 -9 -17 -23 -14 -47 2 -28 9 -37 32 -45 24 -8 31 -6
47 14 24 30 24 46 -1 71 -23 23 -39 25 -64 7z"/>
<path d="M13102 3028 c-27 -27 0 -88 36 -82 6 1 19 2 27 3 20 1 29 44 15 70
-12 24 -58 29 -78 9z"/>
<path d="M13240 3020 c-15 -27 -5 -55 23 -67 33 -14 56 -5 63 24 9 35 -7 57
-44 61 -23 2 -34 -2 -42 -18z"/>
<path d="M13392 3028 c-15 -15 -16 -50 0 -66 7 -7 25 -12 40 -12 53 0 50 81
-3 88 -13 2 -30 -3 -37 -10z"/>
<path d="M13536 3024 c-21 -21 -20 -37 3 -58 29 -26 65 -17 69 17 6 50 -38 75
-72 41z"/>
<path d="M13688 3029 c-21 -12 -24 -49 -6 -67 18 -18 56 -14 68 7 12 24 4 48
-21 61 -21 12 -20 12 -41 -1z"/>
<path d="M13832 3024 c-27 -19 -28 -36 -4 -57 25 -23 49 -21 62 4 23 41 -20
80 -58 53z"/>
<path d="M13964 3016 c-9 -23 -1 -48 18 -60 26 -16 68 26 52 52 -14 22 -62 28
-70 8z"/>
<path d="M14109 3014 c-9 -11 -10 -20 -2 -32 24 -39 82 -15 68 28 -8 24 -47
27 -66 4z"/>
<path d="M14260 3009 c-10 -17 -9 -24 6 -38 17 -15 17 -15 3 3 -11 15 -11 20
-1 23 6 3 10 9 6 14 -3 5 -1 9 3 9 5 0 14 -10 22 -21 11 -19 11 -21 -3 -16
-10 4 -13 1 -9 -9 4 -11 8 -12 19 -3 12 10 12 15 1 32 -20 30 -34 31 -47 6z"/>
<path d="M12323 2913 c-26 -5 -29 -13 -11 -31 18 -18 46 -14 58 7 17 33 12 35
-47 24z"/>
<path d="M12430 2890 c-19 -17 -41 -35 -47 -41 -23 -18 -15 -67 13 -86 24 -15
29 -15 53 -2 28 16 41 63 22 82 -15 15 -14 27 4 27 12 0 35 28 35 44 0 17 -50
2 -80 -24z"/>
<path d="M12550 2905 c-6 -8 -9 -19 -5 -24 3 -6 -3 -19 -15 -31 -32 -32 -26
-66 18 -89 51 -27 99 51 57 93 -8 8 -15 26 -15 40 0 29 -20 35 -40 11z"/>
<path d="M12076 2843 c7 -65 26 -93 61 -93 52 0 85 67 59 119 -19 36 -24 37
-41 14 -11 -15 -14 -15 -36 0 -42 30 -50 23 -43 -40z"/>
<path d="M11946 2848 c-42 -60 19 -123 85 -88 22 12 27 78 7 98 -21 21 -75 15
-92 -10z"/>
<path d="M12235 2846 c-28 -42 0 -96 49 -96 24 0 56 37 56 63 0 54 -76 78
-105 33z"/>
<path d="M12677 2852 c-25 -28 -21 -69 8 -88 23 -15 27 -15 50 0 17 11 25 26
25 46 0 53 -50 78 -83 42z"/>
<path d="M12820 2850 c-25 -25 -26 -52 -2 -73 26 -24 59 -21 77 7 24 37 -2 86
-46 86 -5 0 -18 -9 -29 -20z"/>
<path d="M12971 2854 c-23 -17 -28 -63 -9 -82 18 -18 53 -14 73 8 38 42 -17
106 -64 74z"/>
<path d="M13106 2845 c-21 -22 -20 -48 2 -68 25 -22 45 -21 67 3 41 46 -26
108 -69 65z"/>
<path d="M13247 2840 c-27 -39 3 -87 48 -76 28 7 44 49 28 75 -16 25 -59 26
-76 1z"/>
<path d="M13392 2848 c-18 -18 -15 -66 6 -77 43 -23 91 27 65 68 -13 20 -54
26 -71 9z"/>
<path d="M13537 2842 c-34 -37 -11 -76 40 -70 22 2 29 9 31 31 6 52 -38 76
-71 39z"/>
<path d="M13688 2849 c-21 -12 -24 -49 -6 -67 19 -19 56 -14 68 9 9 16 8 26
-5 45 -17 26 -30 29 -57 13z"/>
<path d="M13829 2841 c-21 -16 -22 -22 -11 -45 15 -33 56 -36 72 -5 14 25 8
44 -19 58 -15 8 -24 7 -42 -8z"/>
<path d="M13964 2836 c-15 -40 21 -80 54 -60 37 24 21 74 -25 74 -13 0 -26 -6
-29 -14z"/>
<path d="M14115 2840 c-3 -5 -3 -15 1 -22 4 -7 3 -8 -4 -4 -18 11 -14 -10 4
-28 18 -19 20 -19 45 -6 21 12 25 40 7 58 -15 15 -45 16 -53 2z"/>
<path d="M14287 2839 c7 -7 15 -10 18 -7 3 3 -2 9 -12 12 -14 6 -15 5 -6 -5z"/>
<path d="M14256 2832 c-4 -7 -2 -12 6 -12 9 0 9 -3 -2 -10 -12 -8 -13 -11 -2
-22 11 -11 13 -10 10 2 -2 11 5 15 25 15 15 -1 27 3 27 7 0 4 -11 8 -24 8 -13
0 -26 5 -28 12 -3 9 -6 9 -12 0z"/>
<path d="M14280 2790 c0 -5 5 -10 11 -10 5 0 7 5 4 10 -3 6 -8 10 -11 10 -2 0
-4 -4 -4 -10z"/>
<path d="M12798 2646 c-32 -39 -34 -54 -14 -81 14 -19 15 -19 33 -2 11 9 29
17 41 17 11 0 24 5 27 11 5 7 15 4 29 -9 39 -38 157 -37 164 0 3 16 -31 74
-53 90 -19 14 -52 8 -70 -12 -21 -23 -55 -27 -55 -6 0 8 -7 17 -16 20 -35 13
-60 5 -86 -28z"/>
<path d="M13106 2664 c-45 -45 16 -109 67 -70 33 26 11 86 -33 86 -10 0 -26
-7 -34 -16z"/>
<path d="M13250 2660 c-10 -10 -17 -27 -16 -37 2 -9 -3 -24 -11 -31 -22 -22
-15 -32 21 -32 75 0 119 94 53 111 -21 6 -33 3 -47 -11z"/>
<path d="M13392 2658 c-36 -36 7 -91 55 -69 20 9 24 17 21 44 -3 27 -7 32 -33
35 -17 2 -36 -3 -43 -10z"/>
<path d="M13529 2646 c-16 -35 3 -58 45 -54 28 3 31 6 31 38 0 32 -3 35 -32
38 -27 3 -35 -1 -44 -22z"/>
<path d="M13682 2658 c-27 -27 -6 -68 35 -68 29 0 48 33 33 60 -12 22 -49 27
-68 8z"/>
<path d="M13820 2650 c-15 -28 4 -60 36 -60 31 0 54 41 34 65 -18 21 -57 19
-70 -5z"/>
<path d="M13972 2658 c-15 -15 -16 -45 -2 -53 10 -6 -13 -44 -55 -94 -20 -23
-20 -23 0 -35 10 -6 30 -23 44 -38 14 -16 33 -28 41 -28 19 0 40 19 40 36 0
19 -31 46 -46 40 -11 -4 -13 1 -7 22 4 15 7 39 7 54 -1 18 6 29 22 37 29 13
31 46 5 61 -25 13 -34 13 -49 -2z"/>
<path d="M14112 2648 c-16 -16 -15 -23 4 -42 16 -17 39 -22 30 -7 -3 5 2 8 12
7 12 -1 17 6 17 24 0 19 -6 26 -25 28 -14 2 -31 -3 -38 -10z"/>
<path d="M14263 2653 c-7 -2 -13 -9 -13 -14 0 -6 4 -8 9 -4 5 3 12 1 16 -5 3
-5 -1 -10 -10 -10 -9 0 -13 -5 -10 -10 5 -8 11 -7 21 1 10 8 14 8 14 1 0 -6 6
-9 13 -6 14 5 18 44 5 44 -4 0 -8 -7 -8 -16 0 -14 -3 -14 -15 -4 -13 11 -13
15 -3 21 14 9 1 11 -19 2z"/>
<path d="M14639 2548 c-16 -29 -11 -70 7 -66 24 4 56 51 49 70 -8 21 -44 19
-56 -4z"/>
<path d="M13402 2490 c-35 -47 -24 -90 23 -90 31 0 45 19 45 60 0 63 -33 78
-68 30z"/>
<path d="M13536 2474 c-21 -20 -20 -38 2 -55 32 -26 72 -13 72 25 0 43 -44 61
-74 30z"/>
<path d="M13680 2475 c-7 -8 -10 -25 -6 -40 5 -19 13 -25 34 -25 48 0 67 34
36 64 -20 20 -48 20 -64 1z"/>
<path d="M13826 2474 c-19 -19 -20 -36 -4 -52 24 -24 78 -8 78 24 0 17 -28 44
-45 44 -7 0 -21 -7 -29 -16z"/>
<path d="M14109 2464 c-17 -21 0 -49 31 -49 27 0 46 25 37 49 -8 21 -51 21
-68 0z"/>
<path d="M14256 2472 c-3 -5 1 -9 9 -9 8 0 15 4 15 9 0 4 -4 8 -9 8 -6 0 -12
-4 -15 -8z"/>
<path d="M14302 2454 c-8 -9 -22 -12 -34 -8 -14 4 -19 2 -16 -7 2 -7 16 -13
31 -13 14 -1 24 0 22 3 -3 2 0 10 7 18 15 19 6 25 -10 7z"/>
<path d="M14428 2403 c-31 -5 -34 -13 -16 -31 18 -18 46 -14 58 7 17 33 18 33
-42 24z"/>
<path d="M14553 2400 c-31 -13 -30 -40 1 -40 24 0 56 23 56 41 0 11 -28 11
-57 -1z"/>
<path d="M14653 2399 c-15 -15 -4 -51 16 -47 20 4 28 58 9 58 -8 0 -19 -5 -25
-11z"/>
<path d="M14170 2372 c0 -10 6 -26 13 -36 13 -17 14 -17 31 -1 16 16 16 18 0
36 -22 24 -44 24 -44 1z"/>
<path d="M14245 2357 c-11 -21 -16 -44 -12 -58 7 -28 39 -73 35 -49 -2 10 4
14 16 12 10 -2 15 1 12 7 -4 5 -2 12 4 16 5 3 10 15 10 27 0 21 -30 78 -41 78
-3 0 -14 -15 -24 -33z"/>
<path d="M14111 2286 c-14 -17 -7 -52 13 -59 22 -9 58 22 54 46 -4 27 -49 35
-67 13z"/>
<path d="M14298 2253 c-10 -2 -18 -9 -18 -14 0 -6 8 -5 20 1 11 6 20 13 20 15
0 3 -1 4 -2 4 -2 -1 -11 -3 -20 -6z"/>
<path d="M15007 2127 c-27 -19 -8 -61 34 -76 55 -19 123 -11 133 16 7 16 -11
56 -22 49 -8 -4 -90 8 -112 18 -9 3 -24 1 -33 -7z"/>
<path d="M14877 2124 c-13 -13 -7 -61 9 -75 14 -11 18 -10 31 6 20 28 13 69
-12 73 -12 2 -24 0 -28 -4z"/>
<path d="M15337 2092 c-33 -35 -34 -52 -3 -52 51 0 67 20 50 64 -9 22 -16 20
-47 -12z"/>
<path d="M13837 1932 c-22 -24 -21 -45 1 -65 28 -25 69 -21 88 8 15 23 15 27
0 50 -20 30 -65 34 -89 7z"/>
<path d="M13981 1936 c-18 -21 -9 -69 14 -81 15 -7 19 -18 17 -40 l-3 -31 70
-1 c47 -1 74 3 81 12 6 7 19 11 30 8 34 -9 68 5 72 30 2 18 8 21 32 19 32 -3
66 21 66 48 0 9 -9 25 -20 35 -24 22 -62 14 -96 -20 -14 -14 -24 -19 -24 -11
0 30 -63 60 -83 39 -12 -11 -75 -14 -82 -3 -9 15 -61 12 -74 -4z"/>
<path d="M14422 1934 c-12 -8 -22 -24 -22 -34 0 -19 35 -50 57 -50 18 0 43 29
43 50 0 21 -25 50 -43 50 -7 0 -23 -7 -35 -16z"/>
<path d="M14554 1926 c-3 -8 -4 -25 -2 -38 3 -20 9 -23 43 -23 39 0 40 1 40
35 0 33 -2 35 -38 38 -26 2 -39 -1 -43 -12z"/>
<path d="M14702 1928 c-30 -30 -3 -72 45 -66 25 3 28 7 28 38 0 32 -3 35 -30
38 -17 2 -36 -3 -43 -10z"/>
<path d="M14844 1926 c-3 -8 -4 -25 -2 -38 2 -19 9 -23 38 -23 33 0 35 2 35
35 0 32 -3 35 -33 38 -21 2 -34 -2 -38 -12z"/>
<path d="M14990 1920 c-13 -23 2 -60 25 -60 30 0 45 13 45 40 0 42 -51 56 -70
20z"/>
<path d="M15143 1933 c-21 -8 -16 -61 6 -68 30 -9 51 5 51 35 0 33 -24 47 -57
33z"/>
<path d="M15285 1923 c-19 -18 -19 -28 1 -47 21 -21 54 -4 54 28 0 29 -34 41
-55 19z"/>
<path d="M15423 1915 c-3 -9 -3 -18 -1 -21 3 -3 8 4 11 16 6 23 -1 27 -10 5z"/>
<path d="M15450 1926 c0 -2 7 -7 16 -10 8 -3 12 -2 9 4 -6 10 -25 14 -25 6z"/>
<path d="M15466 1885 c-3 -8 -1 -15 3 -15 5 0 11 7 15 15 3 8 1 15 -3 15 -5 0
-11 -7 -15 -15z"/>
<path d="M13796 1843 c-12 -13 -6 -53 9 -53 9 0 15 9 15 24 0 26 -12 40 -24
29z"/>
<path d="M13908 1829 c-26 -15 -22 -38 8 -45 25 -7 53 16 54 44 0 14 -38 15
-62 1z"/>
<path d="M13722 1818 c-7 -7 -12 -16 -12 -20 0 -12 28 -10 36 3 10 17 -10 31
-24 17z"/>
<path d="M13840 1800 c0 -5 7 -10 15 -10 8 0 15 5 15 10 0 6 -7 10 -15 10 -8
0 -15 -4 -15 -10z"/>
<path d="M13562 1764 c-33 -23 -31 -80 4 -96 53 -24 107 39 72 83 -20 25 -51
31 -76 13z"/>
<path d="M13709 1766 c-50 -24 -28 -106 27 -100 35 3 54 22 54 54 0 43 -41 66
-81 46z"/>
<path d="M13837 1752 c-22 -24 -22 -45 2 -66 24 -22 70 -17 87 9 33 50 -49
102 -89 57z"/>
<path d="M13988 1759 c-21 -12 -24 -59 -6 -77 19 -19 63 -14 84 9 17 19 17 23
3 47 -16 29 -52 39 -81 21z"/>
<path d="M14562 1748 c-17 -17 -15 -53 3 -68 22 -19 64 -4 71 25 3 14 4 32 0
40 -7 18 -57 20 -74 3z"/>
<path d="M14701 1746 c-17 -21 -6 -63 19 -71 34 -11 62 12 58 48 -3 28 -7 32
-34 35 -19 2 -36 -3 -43 -12z"/>
<path d="M14852 1748 c-17 -17 -15 -53 3 -68 25 -21 65 3 65 39 0 38 -41 56
-68 29z"/>
<path d="M14991 1742 c-6 -10 -7 -29 -4 -41 4 -18 12 -21 37 -19 26 3 32 8 34
32 5 44 -47 66 -67 28z"/>
<path d="M15140 1746 c-6 -8 -10 -25 -8 -38 2 -18 9 -23 33 -23 26 0 30 4 33
29 5 41 -32 62 -58 32z"/>
<path d="M15286 1741 c-9 -10 -14 -25 -10 -34 7 -18 39 -31 54 -22 14 9 13 48
-2 63 -16 16 -22 15 -42 -7z"/>
<path d="M15425 1740 c-3 -6 1 -7 9 -4 18 7 21 14 7 14 -6 0 -13 -4 -16 -10z"/>
<path d="M15420 1711 c0 -6 4 -13 10 -16 6 -3 7 1 4 9 -7 18 -14 21 -14 7z"/>
<path d="M15466 1705 c-16 -12 -17 -15 -4 -15 9 0 18 7 22 15 7 18 6 18 -18 0z"/>
<path d="M14852 1568 c-17 -17 -15 -53 3 -68 12 -10 21 -10 40 -2 40 19 29 82
-15 82 -9 0 -21 -5 -28 -12z"/>
<path d="M14996 1564 c-21 -21 -20 -37 5 -60 24 -22 52 -10 57 25 7 43 -32 65
-62 35z"/>
<path d="M15147 1569 c-40 -23 -6 -90 35 -68 10 5 18 21 18 34 0 29 -28 47
-53 34z"/>
<path d="M15280 1555 c-18 -22 -1 -50 31 -50 20 0 24 5 24 30 0 23 -5 31 -21
33 -11 2 -27 -4 -34 -13z"/>
<path d="M15447 1556 c-4 -10 0 -12 14 -9 10 3 16 9 13 14 -8 13 -21 11 -27
-5z"/>
<path d="M15421 1540 c-1 -19 18 -40 36 -40 7 0 13 7 13 16 0 13 -3 14 -15 4
-12 -10 -16 -8 -24 11 -6 14 -10 18 -10 9z"/>
<path d="M14985 1371 c-7 -24 14 -61 35 -61 28 0 42 17 38 46 -2 24 -8 29 -35
32 -24 2 -33 -1 -38 -17z"/>
<path d="M15137 1384 c-12 -12 -8 -51 8 -64 8 -6 23 -9 35 -5 17 5 20 13 18
38 -2 26 -8 33 -28 35 -14 2 -29 0 -33 -4z"/>
<path d="M15280 1375 c-18 -22 -1 -50 31 -50 20 0 24 5 24 30 0 23 -5 31 -21
33 -11 2 -27 -4 -34 -13z"/>
<path d="M15425 1370 c-3 -5 -2 -10 4 -10 5 0 13 5 16 10 3 6 2 10 -4 10 -5 0
-13 -4 -16 -10z"/>
<path d="M15466 1365 c4 -8 8 -15 10 -15 2 0 4 7 4 15 0 8 -4 15 -10 15 -5 0
-7 -7 -4 -15z"/>
<path d="M15437 1328 c2 -5 10 -8 18 -8 8 0 16 3 18 8 3 4 -5 7 -18 7 -13 0
-21 -3 -18 -7z"/>
<path d="M15286 1194 c-10 -9 -15 -23 -12 -31 3 -8 6 -17 6 -19 0 -2 11 -4 25
-4 29 0 43 25 28 48 -14 23 -29 25 -47 6z"/>
<path d="M15427 1193 c-11 -10 -8 -41 3 -48 7 -4 9 3 6 19 -3 15 -1 24 5 21 5
-4 9 -1 9 4 0 12 -13 14 -23 4z"/>
<path d="M15480 1171 c0 -8 -8 -10 -22 -7 -13 3 -17 3 -10 0 6 -3 10 -10 6
-15 -3 -5 -1 -9 4 -9 14 0 36 29 28 37 -3 3 -6 1 -6 -6z"/>
<path d="M15285 1014 c-19 -19 -16 -43 6 -57 37 -23 69 29 37 61 -16 16 -23
15 -43 -4z"/>
<path d="M15425 1011 c-6 -11 4 -18 23 -15 6 1 18 2 25 3 6 2 3 6 -8 11 -27
12 -33 12 -40 1z"/>
<path d="M15448 972 c4 -10 7 -12 10 -4 2 7 9 9 15 5 7 -3 8 -2 4 2 -14 16
-36 14 -29 -3z"/>
<path d="M15220 863 c0 -39 14 -56 38 -49 15 5 20 2 18 -10 -1 -21 26 -39 48
-31 18 7 22 47 5 64 -6 6 -18 9 -25 6 -10 -4 -14 3 -14 21 0 23 -4 26 -35 26
-32 0 -35 -3 -35 -27z"/>
<path d="M15330 870 c0 -21 8 -24 34 -14 25 10 19 34 -9 34 -18 0 -25 -5 -25
-20z"/>
<path d="M15140 836 c-6 -8 -10 -25 -8 -38 2 -18 9 -23 33 -23 24 0 31 5 33
23 4 25 -13 52 -33 52 -7 0 -18 -7 -25 -14z"/>
<path d="M15429 837 c-1 -1 -2 -14 -3 -29 -2 -22 1 -25 15 -18 10 6 21 5 29
-3 10 -10 10 -8 1 11 -9 17 -9 22 0 22 18 0 5 10 -20 15 -11 2 -22 3 -22 2z
m25 -22 c-4 -8 -11 -12 -16 -9 -6 4 -5 10 3 15 19 12 19 11 13 -6z"/>
<path d="M14973 653 c-13 -2 -23 -8 -23 -12 0 -15 64 -61 78 -56 8 3 18 5 23
5 6 0 9 15 7 33 -3 28 -7 32 -33 33 -16 1 -40 0 -52 -3z"/>
<path d="M15134 646 c-12 -31 0 -51 34 -54 32 -3 33 -2 30 30 -2 28 -7 34 -31
36 -17 2 -29 -2 -33 -12z"/>
<path d="M15277 639 c-8 -29 10 -51 37 -47 16 2 21 10 21 33 0 25 -4 31 -26
33 -20 2 -28 -2 -32 -19z"/>
<path d="M15430 645 c-10 -12 -10 -21 -2 -38 11 -20 11 -20 9 -2 -1 13 3 19
12 17 12 -3 12 0 1 12 -15 19 0 22 18 4 8 -8 12 -8 12 -1 0 6 -7 14 -16 17
-21 8 -20 8 -34 -9z"/>
<path d="M15460 605 c-7 -8 -8 -15 -2 -15 5 0 15 7 22 15 7 8 8 15 2 15 -5 0
-15 -7 -22 -15z"/>
<path d="M15281 461 c-16 -29 -3 -51 31 -51 27 0 29 2 26 33 -4 39 -40 51 -57
18z"/>
<path d="M15424 455 c-10 -25 4 -45 30 -45 13 0 27 7 30 16 10 26 7 29 -8 8
-8 -10 -18 -16 -22 -11 -4 4 -2 7 4 7 18 0 14 14 -8 28 -17 10 -21 10 -26 -3z
m21 -4 c3 -5 1 -12 -5 -16 -5 -3 -10 1 -10 9 0 18 6 21 15 7z"/>
<path d="M15142 288 c-21 -21 -14 -57 12 -64 33 -8 46 2 46 36 0 36 -33 53
-58 28z"/>
<path d="M15294 292 c-32 -22 -15 -78 22 -71 23 5 33 57 12 70 -16 11 -20 11
-34 1z"/>
<path d="M15469 278 c7 -9 9 -23 5 -30 -6 -10 -4 -11 7 0 11 10 10 15 -6 30
-17 15 -18 15 -6 0z"/>
<path d="M15429 271 c8 -5 16 -17 17 -26 4 -27 13 -30 11 -4 -1 24 -13 39 -32
39 -5 0 -4 -4 4 -9z"/>
<path d="M15277 88 c-8 -28 10 -50 37 -46 16 2 22 11 24 36 3 30 1 32 -26 32
-22 0 -31 -6 -35 -22z"/>
<path d="M15438 103 c-22 -6 -23 -36 -3 -53 13 -10 18 -11 28 -1 7 7 8 12 2
11 -22 -5 -35 1 -35 15 0 18 20 20 21 3 0 -7 4 -4 9 7 5 11 9 14 9 8 1 -7 6
-13 12 -13 8 0 8 5 -1 15 -7 8 -15 14 -19 14 -3 -1 -14 -3 -23 -6z"/>
</g>
</svg>
